<svg id="svg3826" xmlns:rdf="http://www.w3.org/1999/02/22-rdf-syntax-ns#" xmlns="http://www.w3.org/2000/svg" height="193.32mm" width="261.51mm" version="1.1" xmlns:cc="http://creativecommons.org/ns#" xmlns:dc="http://purl.org/dc/elements/1.1/" viewBox="0 0 926.60021 685.00329">
 <g id="layer1" fill-rule="evenodd" transform="translate(136.89 -55.076)">
  <g stroke-width=".5">
   <path id="path6" d="m258.86 219.03 2.5-0.2-0.8 2q-0.7 2-1.2 3l-0.5 1v9l0.5 1 0.5 1 0.3 0.2 0.2 0.3 0.2 0.3 0.3 0.2 0.3 0.2 0.2 0.3 59 0.5q59 0.5 106 5.5t99 14.5 93 20.5 68.5 21.5 37.5 15.5 11 5.5l1 0.5 0.2 0.3 0.3 0.2 0.3 0.2 0.2 0.3 1 0.5 1 0.5h3l0.2-0.3 0.3-0.2v-5l-0.5-3-0.5-3-0.5-1.5-0.5-1.5-0.3-1-0.2-1h0.5l0.3 0.2 0.2 0.3 1 0.5 1 0.5 0.2 0.3 0.3 0.2 0.3 0.2 0.2 0.3 0.2 0.3 0.3 0.2 0.5 1 0.5 1 0.5 4q0.5 4 2.5 30.5t-11.3 32.7q-13.2 6.3-30.2 17.8t-31.8 26.2l-14.7 14.8-0.3 0.2-0.2 0.3-0.2 0.3-0.3 0.2-0.3 0.2-0.2 0.3-0.2 0.3-0.3 0.2-0.3 0.2-0.2 0.3-0.2 0.3-0.3 0.2-0.3 0.2-0.2 0.3-0.2 0.3-0.3 0.2-0.3 0.2-0.2 0.3-0.2 0.3-0.3 0.2-0.3 1-0.2 1-0.5 0.2q-0.5 0.3-11 14.3t-21.7 33.7q-11.3 19.8-22.6 44.6-11.2 24.7-39.2 22.2t-32.2-13.2q-4.3-10.8-16.3-34.8t-26-45-30-39.5-27.3-29q-11.2-10.5-11.2-11.5t-9.5-8.8q-9.5-7.7-27.5-21l-18-13.2-0.2-0.5q-0.3-0.5-0.6-0.5h-0.2l-0.5-0.2q-0.5-0.3-10.3-6.6-9.7-6.2-33-18.4-23.2-12.3-45.7-20.6-22.5-8.2-25.7-42.2l-3.3-34 0.3-0.2 0.2-0.3 6.5-0.5q6.5-0.5 9-0.8zm289 92.8q4.5-0.5 14.5 0.5t18.5 4.5 16.7 9.8q8.3 6.2 14.3 14.7t9.5 18 4 20-0.5 15.5-6 14.5-12.3 15.7q-7.2 6.3-16.7 9.8t-18.5 4-14.5-0.5-15.5-5.5-17.2-10.8q-7.3-6.2-12.6-13.4-5.2-7.3-8.4-15.6-3.3-8.2-4.3-18.7t1.5-20 8-18 12.2-13.3q6.8-4.7 14.8-7.7t12.5-3.5z" stroke="#fff" fill="#fff"/>
   <path id="path8" d="m208.36 593.33-0.5 1.5-0.5 1-0.5 1-0.3 1.5-0.2 1.5h-0.5l-0.5 1-0.5 1-0.5 1-0.5 1-0.5 1-0.5 1-0.5 1q-0.5 1-2.5 5t-23.7 6.5l-21.8 2.5h-2l-0.2-7.5q-0.3-7.5-1.8-21.5t-4-26-8-18.5-20.8-18.7q-15.2-12.3-22.2-11.3t-11.8-18.7q-4.7-19.8-10.2-57.8t-6.2-74l-0.8-36h0.5l0.7-7.5q0.8-7.5 32.3-15.7 31.5-8.3 35-8.8l3.5-0.5 1-0.3 1-0.2 19-2.2q19-2.3 39.5-1.8t33.5 3.2q13 2.8 12.2 53.8-0.7 51-5.2 95t-11 75-13 51-7 21.5zm-131-233.5-2 0.5-2.5 0.3-2.5 0.2v-9l1-0.2 1-0.3 12-4q12-4 16.8-3.7 4.7 0.2 4 2.4-0.8 2.3-8.8 6.3t-12.5 5.5-6.5 2z" stroke="#1ec0fe" fill="#1ec0fe"/>
   <path id="path10" d="m249.36 356.83 1.5-55 0.3 0.2 0.2 0.3 1.5 0.5 1.5 0.5 23 10q23 10 46.5 23t31 18 8 5.3l0.5 0.2h0.5l0.3 0.2 0.2 0.3 0.2 0.3 0.3 0.2 0.3 0.2 0.2 0.3 1 0.5 1 0.5 0.2 0.3 0.3 0.2 0.3 0.2 0.2 0.3 20.2 16.3q20.3 16.2 40.3 36.2t20.3 21q0.2 1 1.2 1t17.8 23.5q16.7 23.5 28.2 45.5t15.5 32 4.5 11.5l0.5 1.5 0.5 1 0.5 1 0.3 1 0.2 1-3.5-0.2q-3.5-0.3-64-6.8t-62.3-7.8q-1.7-1.2-2.4-7.7l-0.8-6.5h-4l-0.2 1-0.3 1-0.5 1-0.5 1-3 12.5q-3 12.5-3 17v4.5l0.3 2.5 0.2 2.5 0.8 1.5q0.7 1.5 1.2 2.5l0.5 1 2.7 2.8q2.8 2.7 44.8 8.7t73.8 9.7q31.7 3.8 32.2 5.3t1 4.5l0.5 3 0.5 3 0.5 3 0.3 2 0.2 2-1-0.2-1-0.3-7.5-0.5q-7.5-0.5-59.5-5.2l-52-4.8-4.5-0.2-4.5-0.3-4.5-0.5q-4.5-0.5-13-1.5t-9.7-6.7q-1.3-5.8-15-9.6-13.8-3.7-20.8-4-7-0.2-9.5 7-2.5 7.3-43 4.3t-47-1-10 4.7l-3.5 2.8h-0.5l-0.3 0.2-0.2 0.3-0.2 0.3-0.3 0.2-0.3 0.2-0.2 0.3-0.2 0.3-0.3 0.2-0.3 0.2-0.2 0.3-0.2 0.3-0.3 0.2-0.3 0.2-0.2 0.3-0.2 0.3-0.3 0.2-0.3 0.2-0.2 0.3-0.2 0.3-0.3 0.2-0.3 0.2q-0.2 0.3-2.2 4-2 3.8-9 3.8h-7l0.2-1 0.3-1 0.5-1 0.5-1 0.5-1.5q0.5-1.5 1.5-3.5l1-2 0.5-1 0.5-1 0.3-0.2 0.2-0.3v-0.5l0.2-0.5 0.3-0.5 0.5-1.5 0.5-1.5 0.5-1 0.5-1 0.5-1.5q0.5-1.5 6-17.5t12.5-47.5 12-74.5 6.5-98zm40-21q7-0.5 11 1.5t6.8 5.7q2.7 3.8 3.2 11.3t-2.2 11.7q-2.8 4.3-6.8 6.8t-9.5 3-11-2.2q-5.5-2.8-6.7-4.8-1.3-2-2.8-8t0.5-12 6.3-9.2q4.2-3.3 11.2-3.8zm53.5 64.5q11.5 0 21.5 4t17.8 10.7q7.7 6.8 13.2 17.8t6.5 22.5-1.5 22-8.2 19.5q-5.8 9-12 13.5-6.3 4.5-15 8.3-8.8 3.7-20.3 4.2t-20.5-2.5-16.8-8.7q-7.7-5.8-12.7-12.8t-8-15-3.5-19 2.5-21.5 7.5-17 11.8-12.7q7.2-6.3 16.7-9.8t21-3.5z" stroke="#1ebffd" fill="#1ebffd"/>
   <path id="path12" d="m237.16 71.626 0.2-0.3 46 0.5q46 0.5 90 3.5t86 9 59.5 9.5 18.5 3.8l1 0.2v1q0 1-25-3.8l-25-4.7-2-0.3-2-0.2 0.2 1 0.3 1 0.5 1 0.5 1 0.3 0.2 0.2 0.3 0.2 0.3 0.3 0.2 0.5 1q0.5 1 4.5 8.5t4 14.5-28.3 27q-28.2 20-28.2 21t-1 1h-1v-0.2q0-0.3-1-0.6-1-0.2-1 0.8v1l-0.2 0.5q-0.3 0.5-0.6 0.5h-0.2l-0.2 0.5q-0.3 0.5-0.6 0.5h-0.2l-0.2-1q-0.3-1-0.6 0l-0.2 1-0.2 0.5q-0.3 0.5-0.6 0.5h-0.2l-0.2 0.5q-0.3 0.5-0.6 0.5h-0.2v-0.2q0-0.3-1.5 0.4l-1.5 0.8h-1q-1 0-1 1v1l-0.2 0.5q-0.3 0.5-0.6 0.5h-1.2l-1 0.2q-1 0.3-2 0.6-1 0.2-1 1.2v1l-0.2 0.5q-0.3 0.5-0.6 0.5h-1.2l-1 0.2q-1 0.3-2.8 0-1.7-0.2-10-4-8.2-3.7-11.2-3.7h-3l-1.5-0.5-1.5-0.5h-4l0.2 0.3 0.3 0.2 0.3 0.2 0.2 0.3 1.5 0.5 1.5 0.5 0.2 0.3 0.3 0.2 0.3 0.2 0.2 0.3 5 2.5q5 2.5 6 4t1.2 1.8l0.3 0.2 0.3 0.2 0.2 0.3 0.2 0.3 0.3 0.2 0.5 1 0.5 1 0.3 0.2 0.2 0.3 0.2 0.3 0.3 0.2v2l-0.3 0.2-0.2 0.3v0.5h-1q-1 0-1 1v1l-0.2 0.5q-0.3 0.5-0.6 0.5h-0.2l-0.5-0.2q-0.5-0.3-1-0.3h-0.5l-1 0.5-1 0.5-0.2 0.3-0.3 0.2-0.3 0.2-0.2 0.3-1 0.5-1 0.5-0.2 0.3-0.3 0.2-0.3 0.2-0.2 0.3v0.5l-1 0.2q-1 0.3-1.5 1l-0.5 0.8-1 0.2q-1 0.3-2.5 1.6l-1.5 1.2-1 0.2q-1 0.3-19-0.2t-59.5-0.5-45 1.5l-3.5 1.5-0.2 0.3-0.3 0.2-0.3-0.2-0.2-0.3-0.2-0.3-0.3-0.2h-0.5l-0.2-17.5q-0.3-17.5-4.3-52.5t-7-47-3.3-11l-0.2 1h-0.2q-0.3 0-0.8-1.5l-0.5-1.5v-3l0.3-0.2zm24 32-3.3 8.2-0.5 1.5-0.5 1.5-0.5 2.5-0.5 2.5-0.3-0.2-0.2-0.3-0.2-0.3-0.3-0.2-0.5-6.5q-0.5-6.5-1.5-17.5t0.7-12.2q1.8-1.3 13.8-2.6 12-1.2 11.8-0.2-0.3 1-3 2.8-2.8 1.7-7.3 7.2t-7.7 13.8z" stroke="#c7c6c5" fill="#c7c6c5"/>
   <path id="path14" d="m58.557 319.03 0.3-0.2 0.5 42q0.5 42 2 56t2 17.5l0.5 3.5 0.5 4 0.5 4h0.5l4.8 26.5q4.7 26.5 8.7 43t3.5 17-0.8 0.7l-0.2 0.3-0.5 0.3-0.5 0.2h-0.2q-0.3 0-0.6 0.5l-0.2 0.5-2 1.2q-2 1.3-3 1.8l-1 0.5-3.2 4.3q-3.3 4.2-7.3 17.7t-4 23 3.5 32 5 27.5 2 6l0.5 1 0.3 1.5 0.2 1.5-16-0.2q-16-0.3-26-0.8t-16-1.8q-6-1.2-12.2-20.2l-6.3-19-0.5-1-0.5-1-0.3-0.2-0.2-0.3-0.2-0.3-0.3-0.2-0.3-0.2-0.2-0.3-0.2-0.3-0.3-0.2-0.3-0.2-0.2-0.3-0.2-0.3-0.3-0.2-0.3-0.2-0.2-0.3-0.2-0.3-0.3-0.2h-0.5l-0.2-0.5q-0.3-0.5-3-2.7-2.8-2.3-7.3-3.6-4.5-1.2-10.7-24.2l-6.3-23-0.5-2-0.5-2-0.5-1-0.5-1h-0.5l-0.2-0.5q-0.3-0.5-0.6-2.5l-0.2-2h0.5v-2l-0.5-3-0.5-3-0.5-2.5q-0.5-2.5-4.5-28.5t-6-57.5-1-54.5 21.7-32.8q20.8-9.7 54.8-22.7l34-13 1.5-0.5 1.5-0.5 0.2-0.3zm-51.7 102.8q6.5-0.5 11.5 3t8.8 11.8q3.7 8.2 4.2 22.2t-2.5 24.5-7 17-9.3 10.3q-5.2 3.7-13.7 3.7t-12.7-4.3q-4.3-4.2-7.3-11.7t-3.5-20.5 1.5-21 7-17 10.7-13.2q5.8-4.3 12.3-4.8z" stroke="#1ec0fd" fill="#1ec0fd"/>
   <path id="path16" d="m544.36 100.83v-1l25 6.2q25 6.3 55 17.3t41 16.5 11 5.8v0.2l0.2 1 0.3 1 0.3 0.2 0.2 0.3 1 0.5 1 0.5 0.2 0.3 0.3 0.2 0.3 0.2 0.2 0.3 0.2 0.3 0.3 0.2 0.3 0.2 0.2 0.3 0.2 0.3 0.3 0.2 0.3 0.2 0.2 0.3 9.8 15.3q9.7 15.2 19.7 38.7t16.5 47 7 25.5 0.8 5l0.2 3h-1l-0.2-0.5q-0.3-0.5-0.6-0.5h-0.2l-0.2-0.5-0.3-0.5h-1.5l-0.2-0.5-0.3-0.5-0.3-0.2-0.2-0.3-0.2-0.3-0.3-0.2-0.3 4.5-0.2 4.5-1-0.2-1-0.3-2-0.5q-2-0.5-5-1.5l-3-1-1-0.5-1-0.5-1.5-0.5-1.5-0.5-0.2-0.3-0.3-0.2-0.3-0.2-0.2-0.3-1.5-0.5-1.5-0.5-0.2-0.3-0.3-0.2-0.3-0.2-0.2-0.3 3-0.5q3-0.5 4-1l1-0.5 0.2-0.3 0.3-0.2 0.3-0.2 0.2-0.3 0.2-0.3 0.3-0.2 0.3-1 0.2-1-1-0.2-1-0.3-1-0.5-1-0.5-1.5-0.5q-1.5-0.5-2.5-1t-33.5-12-48.7-26.8q-16.3-15.2-26.6-19.2l-10.2-4-0.5-0.2q-0.5-0.3-5.7-2-5.3-1.8-12-3.8-6.8-2-7.3-2.8-0.5-0.7-6-2.2t-11.3-7.8q-5.7-6.2-19-15.4l-13.2-9.3-0.2-0.3-0.3-0.2-0.3-0.2-0.2-0.3-1.5-0.3-1.5-0.2v-2l1.5-0.2 1.5-0.3 1-0.5 1-0.5 27-20q27-20 29-22t2.2-2.3l0.3-0.2 0.3-0.2 0.2-0.3 0.2-0.3 0.3-0.2v-3l-0.3-0.2-0.2-0.3-0.2-0.3-0.3-0.2-0.3-0.2-0.2-0.3-0.2-0.3-0.3-0.2-0.3-0.2-0.2-0.3-0.2-0.3q-0.3-0.2-1.8-2.2t-14.8-5.5q-13.2-3.5-13.2-4.5zm32 39.2-17 1.8 0.2-1 0.3-1 0.3-0.2 0.2-0.3 0.2-0.3 0.3-0.2 0.3-0.2 0.2-0.3 0.2-0.3 0.3-0.2 0.3-0.2 0.2-0.3 1-0.5 1-0.5 0.2-0.3 0.3-0.2 0.3-0.2 0.2-0.3 1-0.5q1-0.5 8.5-6.5t15-2 10 6.7q2.5 2.8-2 4-4.5 1.3-21.5 3zm146 132.8h1l-0.2 1-0.3 1-0.3 1q-0.2 1-1.2 1t-0.8-1l0.3-1 0.3-1 0.2-1h1z" stroke="#c8c6c5" fill="#c8c6c5"/>
   <path id="path20" d="m749.36 384.83 1-0.5 0.2-0.3 0.3-0.2 0.5 3 0.5 3 0.3 15 0.2 15-0.5 0.2q-0.5 0.3-1 0.6l-0.5 0.2-2-5.2q-2-5.3-6-7.8t-9.2-1.8q-5.3 0.8-8.3 3.8t-4 5.5-0.5 9.5 3.2 10.8q2.8 3.7 4.8 4.7t8 0.5 8.8-3.2q2.7-2.8 3.2-3.8l0.5-1 0.5-1.5 0.5-1.5 0.3-1.5 0.2-1.5h0.5l-1.5 31.5q-1.5 31.5-2 36l-0.5 4.5-0.5 4-0.5 4-0.3 0.2-0.2 0.3-0.2 0.3-0.3 0.2-0.5-1-0.5-1-0.5-1.5-0.5-1.5-3.5-7q-3.5-7-8.8-12.2-5.2-5.3-11.7-8.3t-16-3-17.5 4-13.8 11.3q-5.7 7.2-8.2 14.7t-2.5 18 3.3 19.3q3.2 8.7 8.2 14.7t13 10 17.5 4 17.5-4 10.8-6.7q2.7-2.8 3-3l0.2-0.3 0.2-0.3 0.3-0.2 0.5-1 0.5-1 0.3-0.2 0.2-0.3 0.2-0.3 0.3-0.2 0.5-1 0.5-1 0.3-0.2 0.2-0.3 0.2-0.3 0.3-0.2v4l-0.5 2.5-0.5 2.5-0.5 2.5q-0.5 2.5-1 5t-7 25.5-12.2 35.2q-5.8 12.3-24.8 9.8t-19.8-6.8l-0.7-4.2h-0.5l-0.2-1q-0.3-1-0.6-1h-0.2v-0.5l-1.5-0.5-1.5-0.5-2-0.5-2-0.5-1.5-0.5q-1.5-0.5-4-1t-15-2.2q-12.5-1.8-15 5.2t-10.3 6q-7.7-1-22-2.8l-14.2-1.7-0.2-0.3-0.3-0.2-0.3-0.2-0.2-0.3 0.2-0.3 0.3-0.2 0.5-2 0.5-2 0.5-2 0.5-2 1.3-4.5q1.2-4.5 12.7-4.7 11.5-0.3 16.7-4.6 5.3-4.2 10.8-12.7t5.8-9.5l0.2-1h0.2q0.3 0 0.6-0.5l0.2-0.5v-0.5l0.2-0.3 0.3-0.2 0.5-1 0.5-1 0.5-1 0.5-1 0.5-1q0.5-1 1.5-4l1-3 0.5-1 0.5-1 0.3-2.5 0.2-2.5-1.5 0.2-1.5 0.3-0.2 0.3-0.3 0.2-0.5 1-0.5 1-0.3 0.2-0.2 0.3-0.2 0.3-0.3 0.2-0.5 1q-0.5 1-2.2 2.8-1.8 1.7-15.8 1.7h-14l-0.2-0.3-0.3-0.2v-2l0.5-1 0.5-1 0.5-1.5q0.5-1.5 5-12t16.5-33 23.7-39.5l11.8-17v-0.5l0.2-0.3 0.3-0.2 0.3-0.2 0.2-0.3 0.2-0.3 0.3-0.2 0.3-0.2 0.2-0.3 0.2-0.3 0.3-0.2 0.3-0.2 0.2-0.3 0.2-0.3 0.3-0.2 13-14q13-14 27.3-25.2 14.2-11.3 27.7-18.8t14.5-8l1-0.5 1.5-0.5 1.5-0.5 1-0.5z" stroke="#1ebffc" fill="#1ebffc"/>
   <g id="g22" transform="translate(-295.64 -154.17)" stroke="#fefefe" fill="#fefefe">
    <path id="path24" d="m570 778.8 2 0.2 3 0.2 3 0.3 16.5 1.5q16.5 1.5 23 2l6.5 0.5 0.2 0.3 0.3 0.2v4.5q0 4.5-2 11.5t-6.3 13.2q-4.2 6.3-60.7 6.6l-56.5 0.2v-0.5l-26.5-2q-26.5-2-30-2.7-3.5-0.8-4.7-10.3-1.3-9.5 0.2-15t2.8-6.7q1.2-1.3 22.2-4.3t46.5-3 42 1.5 18.5 1.8z"/>
    <path id="path26" d="m514.8 387.8 0.2-0.3h2l0.2 0.3 0.3 0.2 0.3 0.2 0.2 0.3 0.2 0.3 0.3 0.2 7 9q7 9 8 19.5t1.3 16l0.2 5.5-2.5-0.2q-2.5-0.3-12-1.8t-30.5-2-46 3l-25 3.5v0.5l-2.5 0.2q-2.5 0.3-27.5 6.8l-25 6.5h-3l-0.2-0.3-0.3-0.2 0.5-9.5q0.5-9.5 1.2-12.3 0.8-2.7 38.3-17.7t47.5-18.5 11-3.8l1-0.2h0.2q0.3 0 0.6-0.5l0.2-0.5 7 4.8q7 4.7 10 5.7t11 0.5 14-4 8.2-6.2q2.3-2.8 2.8-3.8l0.5-1 0.3-0.2z"/>
   </g>
   <path id="path28" d="m222.36 132.63v0.2h0.5l0.3 0.5 0.2 0.5v0.2q0 0.3 0.5 0.6l0.5 0.2v0.2q0 0.3 0.5 0.6l0.5 0.2v0.2q0 0.3 0.5 0.6l0.5 0.2v0.2q0 0.3 0.5 0.6l0.5 0.2 1.2 2.5q1.3 2.5 1.3 31t-0.5 31l-0.5 2.5-0.5 1.5-0.5 1.5-0.3 1.5-0.2 1.5h-2l-0.2-5q-0.3-5-0.8-7.5t-5.2-11q-4.8-8.5-5.8-8.5t-1-1-5.5-3.8q-5.5-2.7-13.5-3.2t-11 0.5-8.8 5.3q-5.7 4.2-9.7 12.2t-4.5 19 0.5 15.5-2.3 5.7l-3.2 1.3-1.5 0.5-1.5 0.5-1 0.5-1 0.5 0.2 0.3 0.3 0.2 0.3 0.5 0.2 0.5-0.5 0.2q-0.5 0.3-2 0.8t-33.5 13.5l-32 13-1.5 0.5-1.5 0.5-1 0.5-1 0.5h-1l-0.2-0.3-0.3-0.2v-4l0.5-4.5q0.5-4.5 1.8-8.3 1.2-3.7 3.4-17 2.3-13.2 8.3-42.7l6-29.5 0.5-1.5 0.5-1.5 0.3-1 0.2-1v-0.5l1-0.3 1-0.2-0.2 1-0.3 1-0.5 5.5-0.5 5.5-0.3 2-0.2 2 1-0.2 1-0.3 1-0.5 1-0.5 1-0.5 1-0.5 23-11q23-11 41.5-17t34.5-6 18 0.5 2 0.8z" stroke="#c6c6c6" fill="#c6c6c6"/>
   <path id="path30" d="m484.56 90.826-0.2-1 2 0.2 2 0.3 25 4.7q25 4.8 25 3.8v-1l3 0.8q3 0.7 3 1v1.2q0 1 13.2 4.5 13.3 3.5 14.8 5.5t1.8 2.2l0.2 0.3 0.2 0.3 0.3 0.2 0.3 0.2 0.2 0.3 0.2 0.3 0.3 0.2 0.3 0.2 0.2 0.3 0.2 0.3 0.3 0.2v3l-0.3 0.2-0.2 0.3-0.2 0.3-0.3 0.2-0.3 0.2q-0.2 0.3-2.2 2.3t-29 22l-27 20-1 0.5-1 0.5-0.2 0.3q-0.3 0.2-1 0.7l-0.8 0.5-0.2-0.5q-0.3-0.5-0.6-0.5h-0.2l-0.5-0.2q-0.5-0.3-4.5-2.3l-4-2-1-0.5-1-0.5-1-0.5-1-0.5-1-0.5-1-0.5-0.2-0.3-0.3-0.2-0.3 1-0.2 1 1 0.2 1 0.3 0.2 0.3 0.3 0.2 0.3 0.2 0.2 0.3 0.2 0.3 0.3 0.2 0.3 0.2 0.2 0.3 0.2 0.3 0.3 0.2 2.3 1.8q2.2 1.7 3.2 2.2l1 0.5 0.2 0.3 0.3 0.2 0.3 0.2 0.2 0.3 0.2 0.3 0.3 0.2v1l-0.3 0.2-0.2 0.3-0.2 0.3-0.3 0.2-0.3 0.2-0.2 0.3-1 0.5-1 0.5-0.2 0.3q-0.3 0.2-16.6 12-16.2 11.7-17.7 14.4l-1.5 2.8v2.2q0 0.3 0.5 0.6l0.5 0.2v1.2q0 0.3 0.5 0.6l0.5 0.2v1.2q0 0.3 0.5 0.6l0.5 0.2v0.5l0.2 0.3 0.3 0.2 2.3 2.2q2.2 2.3 2.7 2.6l0.5 0.2v1q0 1 5.5 5.2 5.5 4.3 6.5 4.8l1 0.5 0.2 0.3 0.3 0.2 0.3 0.2 0.2 0.3 0.2 0.3 0.3 0.2 0.3 0.2 0.2 0.3 1 0.5 1 0.5 0.2 0.3 0.3 0.2 0.3 0.2 0.2 0.3 0.2 0.3 0.3 0.2 0.3 0.2 0.2 0.3h-6l-3-0.5q-3-0.5-23-3.2l-20-2.8 0.2-1.5 0.3-1.5 0.5-2 0.5-2v-1l-0.5-1.5q-0.5-1.5-2-3.5t-7.2-7q-5.8-5-5.8-6t-1-1-1-1-5.8-6l-5.7-5-0.3-0.2-0.2-0.3-0.2-0.3-0.3-0.2-0.3-0.2-0.2-0.3-0.2-0.3-0.3-0.2-0.3-0.2-0.2-0.3 0.2-0.3 0.3-0.2 0.3-0.2 0.2-0.3 0.2-0.3 0.3-0.2 0.3-0.5 0.2-0.5h1.2q0.3 0 0.6-0.5l0.2-0.5 1.8-1q1.7-1 2-1.5l0.2-0.5h1.2q0.3 0 0.6-0.5l0.2-0.5 0.8-0.5q0.7-0.5 1-1l0.2-0.5 1-0.2q1-0.3 1.5-0.6l0.5-0.2h0.2q0.3 0 0.6-0.5l0.2-0.5h0.2q0.3 0 0.6-0.5l0.2-0.5h1.2q0.3 0 0.6-0.5l0.2-0.5h0.2q0.3 0 0.6-0.5l0.2-0.5 0.5-0.2q0.5-0.3 1-0.6l0.5-0.2h0.2q0.3 0 0.6-0.5l0.2-0.5 28.8-20.5q28.7-20.5 28.7-27.5t-4-14.5-4.5-8.5l-0.5-1-0.3-0.2-0.2-0.3-0.2-0.3-0.3-0.2-0.5-1-0.5-1-0.3-1z" stroke="#e9e9e8" fill="#e9e9e8"/>
   <g id="g32" transform="translate(-295.64 -154.17)" stroke="#fefefe" fill="#fefefe">
    <path id="path34" d="m512 232.2v-0.2l1 0.2q1 0.3 1.2 0.6l0.3 0.2 5 26.5q5 26.5 5.3 29.5 0.2 3-0.8 3h-1l-0.2-0.5q-0.3-0.5-0.6-0.5h-0.2l-0.2-0.5q-0.3-0.5-0.6-0.5h-0.2l-0.2-0.5q-0.3-0.5-0.6-0.5h-0.2l-0.2-0.5q-0.3-0.5-0.6-0.5h-0.2l-0.2-0.5-0.3-0.5h-1.5v-0.2q0-0.3-1.5-0.8t-17.5-0.5-34.5 6-41.5 17l-23 11-1 0.5-1 0.5-1 0.5-1 0.5-1 0.3-1 0.2 0.2-2 0.3-2v-4q0-4-0.3-4.5l-0.2-0.5h0.2q0.3 0 0-1.5l-0.2-1.5 3.8-10q3.7-10 4.4-12.2 0.8-2.3 5.8-6 5-3.8 5-4.8t3-1.2q3-0.3 22.5-9.8t40.5-17.5 25.5-9.5 5.5-1.8l1-0.2 1-0.2q1-0.3 1-0.6z"/>
    <path id="path36" d="m718 791.8 5 0.2 1 0.2 1 0.3 21.5 2q21.5 2 23.5 2.3l2 0.2-0.2 1-0.3 1-3 12q-3 12-3 13.5v1.5l0.3 0.2 0.2 0.3 58.5 4.7q58.5 4.8 64.5-9 6-13.7 16.5-13.2t13.5 0.8l3 0.2v2l-0.2 4.5q-0.3 4.5-1.8 10t-6.2 13.5q-4.8 8-92.8 0l-88-8-1.5-0.2q-1.5-0.3-35.5-3.6l-34-3.2 0.2-1 0.3-1 3.7-17.5q3.8-17.5 25.3-15.7 21.5 1.7 26.5 2z"/>
   </g>
   <path id="path38" d="m-57.443 367.03 0.3-0.2 0.5 42.5q0.5 42.5 5 76t5.5 39 1.5 8l0.5 2.5 0.5 2.5 0.5 2.5h0.5l0.2 2q0.3 2 0.6 2.5l0.2 0.5 0.2 2 0.3 2 0.5 2.5 0.5 2.5 5 19.5q5 19.5 5.3 22l0.2 2.5-15.2 5.5q-15.3 5.5-17.8 10.5t-2.8 10l-0.2 5-1-0.2q-1-0.3-9-0.3t-13.8-15.3q-5.7-15.2-12.7-41.7t-12-58.5-6.3-62.5l-1.2-30.5 0.2-8q0.3-8 0.8-9t18.8-11.8l18.2-10.7 1-0.5 1-0.5 0.2-0.3 0.3-0.2 0.3-0.2 0.2-0.3 1-0.5 1-0.5 0.2-0.3 0.3-0.2h0.5l1-0.2q1-0.3 8.5-4.3l7.5-4 1.5-0.5 1.5-0.5 0.2-0.3z" stroke="#1ebffc" fill="#1ebffc"/>
   <path id="path40" d="m93.357 594.83 1-0.5 5 0.5q5 0.5 8.5 3.2 3.5 2.8 12.7 18.8 9.3 16 9.8 17l0.5 1 0.3 0.5 0.2 0.5v0.2q0 0.3 0.5 0.6l0.5 0.2 4.8 15.5q4.7 15.5 5.2 17.5l0.5 2 0.5 3 0.5 3h0.5l0.2 3q0.3 3-0.2 11.5t-3.2 13.3q-2.8 4.7-8.8 4.7t-12-6-14.8-22.7q-8.7-16.8-12.7-33.3t-4.5-30 1.2-17.7l1.8-4.3 0.2-0.3 0.3-0.2 0.3-0.2 0.2-0.3 1-0.5z" stroke="#fefefe" fill="#fefefe"/>
   <path id="path44" d="m-46.643 317.63-3 0.2-0.2-1-0.3-1-0.5-1-0.5-1 0.5-13q0.5-13 2.5-29t6-31 8.3-20.2q4.2-5.3 5.2-5.6 1-0.2 1-1.2t29.5-22.2q29.5-21.3 41.5-28.3t24.5-11.7q12.5-4.8 3.7 53.7-8.7 58.5-38.4 74.3-29.8 15.7-53.3 26.7t-26.5 11.3zm96.2-142.6-5.2-1.7 1-0.5 1-0.5 0.2-0.3 0.3-0.2 0.3-0.2 0.2-0.3 0.2-0.3 0.3-0.2 0.3-0.2 0.2-0.3 1-0.5 1-0.5 0.2-0.3q0.3-0.2 2-1.4 1.8-1.3 10.3-5.6 8.5-4.2 5.3 17.3-3.3 21.5-5.3 14t-5-12-8.3-6.3z" stroke="#c6c5c6" fill="#c6c5c6"/>
   <g id="g48" transform="translate(-295.64 -154.17)" stroke="#fefefe" fill="#fefefe">
    <path id="path50" d="m677.2 692.2 0.3-0.2 0.5 1 0.5 1 2.3 2.2q2.2 2.3 8.7 3.8t109 12 106.5 11l4 0.5-0.2 0.3-0.3 0.2-0.3 0.2-0.2 0.3-0.2 0.3-0.3 0.2-0.3 0.2-0.2 0.3-0.2 0.3-0.3 0.2-0.3 0.2-0.2 0.3-0.2 0.3-0.3 0.2-0.3 0.2-0.2 0.3-0.2 0.3-0.3 0.2-0.5 1-0.5 1-0.3 0.2-0.2 0.3v0.5l-1.8 3q-1.7 3-2 4l-0.2 1-0.5 0.2q-0.5 0.3-35-3.4l-34.5-3.8-0.2-0.5q-0.3-0.5-0.6-0.5h-5.2l-2.5-0.2q-2.5-0.3-45-4.6l-42.5-4.2h-9l-0.2-0.5q-0.3-0.5-0.6-0.5h-0.2l-7.5-0.2q-7.5-0.3-20.5-1.3t-16.8-4.7q-3.7-3.8-3.7-9.3v-5.5l0.5-2 0.5-2 0.5-1.5 0.5-1.5 0.3-0.2 0.2-0.3 0.2-0.3z"/>
    <path id="path52" d="m262.2 781.2 2.8-2.7 3.5 0.5q3.5 0.5 9.7 6.8 6.3 6.2 13.3 19.2t10.5 24.5 3 22-1 11-1 1.5l-0.5 1-0.3 0.2-0.2 0.3-1 0.5-1 0.5-0.2 0.3-0.3 0.2-0.3 0.2-0.2 0.3h-3q-3 0-4-0.5t-6.8-5.8q-5.7-5.2-12.7-18.2t-10-24.5-3-23 2.7-14.3z"/>
    <path id="path54" d="m673.2 716.5 0.3-3.5 0.3 0.2 0.2 0.3 0.2 0.3 0.3 0.2 0.3 0.2 0.2 0.3 0.2 0.3 0.3 0.2 0.3 0.2 0.2 0.3 3.5 2.5q3.5 2.5 23 3t20 0.2l0.5-0.2h0.2q0.3 0 0.6 0.5l0.2 0.5v0.2q0 0.3 4.5 0.3h4.5v-0.5l42.5 4.2q42.5 4.3 45 4.6l2.5 0.2 2 0.2q2 0.3 2.5 0l0.5-0.2h0.2q0.3 0 0.6 0.5l0.2 0.5 30 4.2q30 4.3 32 4.8l2 0.5 2 0.3 2 0.2-0.2 2-0.3 2-0.5 2-0.5 2-0.5 2-0.5 2-0.3 0.2-0.2 0.3h-1.5q-1.5 0-10-0.5t-82-8-98-11.5-26.3-6.3l-1.7-2.2-0.5-2-0.5-2-0.3-1-0.2-1 0.2-3.5z"/>
    <path id="path56" d="m1030.8 809.8 0.2-0.3 0.2-0.3 0.3-0.2 0.3 0.2 0.2 0.3 0.2 0.3 0.3 0.2 0.3 0.2 0.2 0.3 0.2 0.3 0.3 0.2 0.5 1 0.5 1 0.3 0.2 0.2 0.3 0.2 0.3 0.3 0.2 0.3 0.2 0.2 0.3 0.2 0.3 0.3 0.2 2 5.5q2 5.5 1.5 14.5t-1.5 11-1.5 3l-0.5 1-0.3 0.2-0.2 0.3v0.5h-0.5l-0.5 1q-0.5 1-3 3t-38.8-0.8l-36.2-2.7 0.2-0.3 0.3-0.2 0.5-1 0.5-1 0.5-2q0.5-2 4-17t8.8-15h5.2l3 0.2 3 0.3 21 1.5q21 1.5 23.2-1.8 2.3-3.2 2.8-4.2l0.5-1 0.3-0.2z"/>
   </g>
   <path id="path62" d="m6.8572 421.83q6.5-0.5 11.5 3t8.8 11.8q3.7 8.2 4.2 22.2t-2.5 24.5-7 17-9.3 10.3q-5.2 3.7-13.7 3.7t-12.7-4.3q-4.3-4.2-7.3-11.7t-3.5-20.5 1.5-21 7-17 10.7-13.2q5.8-4.3 12.3-4.8z" stroke="#fbee00" fill="#fbee00"/>
   <path id="path64" d="m10.557 656.83-0.2-2 2 0.2 2 0.3 6 0.3q6 0.2 6.2 1.2 0.3 1 0.6 0 0.2-1 12.2 0t13.8 9.5q1.7 8.5 1.2 27t-3.2 22.3q-2.8 3.7-8.3 6.7t-7 3.5l-1.5 0.5-1.5 0.3-1.5 0.2h-0.2q-0.3 0-5 1.2l-4.8 1.3-1.5 0.3-1.5 0.2 0.2-3q0.3-3 0.8-9.5t-0.2-17l-0.8-10.5-0.2-3-0.3-3-0.5-3q-0.5-3-3.5-12.5l-3-9.5-0.3-2z" stroke="#383536" fill="#383536"/>
   <path id="path68" d="m221.86 209.83v10l-0.5 1.5-0.5 1.5-0.3 1-0.2 1-1-0.2-1-0.3-0.2-0.3-0.3-0.2-0.3-0.2-0.2-0.3-0.2-0.3-0.3-0.2-0.3-0.2-0.2-0.3-0.2-0.3q-0.3-0.2-4.6-3l-4.2-2.7-0.2-0.3-0.3-0.2-0.3-0.2-0.2-0.3-1-0.5-1-0.5-1-0.5-1-0.5h-2l-0.2 0.3-0.3 0.2v3l0.3 0.2 0.2 0.3 1 0.5 1 0.5 1 0.5 1 0.5 5.5 4q5.5 4 5.7 4.3l0.3 0.2 0.3 0.2 0.2 0.3 0.2 0.3 0.3 0.2v3l-0.5 1-0.5 1-0.3 0.2q-0.2 0.3-4.4 4.6-4.3 4.2-11 6.4-6.8 2.3-10.8 1.3t-9.2-5.3q-5.3-4.2-9.3-11.2t-4.5-17.5 0.5-14.5 5.3-11q4.2-7 8.7-9.8 4.5-2.7 11.5-3.2t10.5 1 8.3 6.2q4.7 4.8 7.7 11.8t3 17z" stroke="#dfdfdf" fill="#dfdfdf"/>
   <path id="path70" d="m180.16 687.83-0.8-19h8v0.5l13.2 0.7q13.3 0.8 16.6 0.6 3.2-0.3 8.2 0l5 0.2-0.8 9.5q-0.7 9.5-1.2 11l-0.5 1.5-0.5 2-0.5 2-0.3 0.5-0.2 0.5-0.2 1-0.3 1-4.3 6.2q-4.2 6.3-7.7 8.3t-4.7 2.3q-1.3 0.2-4 2.4-2.8 2.3-11.3 5.3t-11 3.5l-2.5 0.5-1 0.3-1 0.2 0.2-3q0.3-3 1.3-11t0.3-27z" stroke="#383537" fill="#383537"/>
   <path id="path74" d="m496.56 158.83 0.3-1 0.3 0.2 0.2 0.3 1 0.5 1 0.5 1 0.5 1 0.5 1 0.5 1 0.5 4 2q4 2 4.5 2.3l0.5 0.2v0.2q0 0.3 0.5 0.6l0.5 0.2v0.2q0 0.3 1 0.8l1 0.5 0.2 0.3 0.3 0.2 0.3 0.2 0.2 0.3 13.2 9.3q13.3 9.2 19 15.4 5.8 6.3 11.3 7.8t6 2.2q0.5 0.8 7.3 2.8 6.7 2 12 3.8 5.2 1.7 5.7 2l0.5 0.2v1q0 1 2.2 2 2.3 1 2.8 2l0.5 1 4.5 5.5q4.5 5.5 4.8 6l0.2 0.5v0.5l0.2 0.3 0.3 0.2 0.3 0.2 0.2 0.3 0.2 0.3 0.3 0.2 0.5 1 0.5 1 0.3 0.2 0.2 0.3 0.2 0.3 0.3 0.2 0.3 0.2 0.2 0.3 0.2 0.3 0.3 0.2 0.3 0.2 0.2 0.3 0.2 0.3 0.3 0.2 0.5 1 0.5 1 0.3 1 0.2 1-2 0.2-2 0.3v0.5l-0.5-0.2-0.5-0.3-2-0.5q-2-0.5-9.5-2.5t-63-13.3l-55.5-11.2-0.2-1q-0.3-1-3-3l-2.8-2-0.5-0.2q-0.5-0.3-0.5-0.6v-0.2h-0.2q-0.3 0-0.6-1l-0.2-1h0.2q0.3 0 0-0.5l-0.2-0.5-0.5-0.2q-0.5-0.3-0.5-0.6v-0.4q0-0.3 0-1v-0.8l1.5-2.8q1.5-2.7 17.7-14.4 16.3-11.8 16.6-12l0.2-0.3 1-0.5 1-0.5 0.2-0.3 0.3-0.2 0.3-0.2 0.2-0.3 0.2-0.3 0.3-0.2v-1l-0.3-0.2-0.2-0.3-0.2-0.3-0.3-0.2-0.3-0.2-0.2-0.3-1-0.5q-1-0.5-3.2-2.2l-2.3-1.8-0.3-0.2-0.2-0.3-0.2-0.3-0.3-0.2-0.3-0.2-0.2-0.3-0.2-0.3-0.3-0.2-0.3-0.2-0.2-0.3-1-0.3-1-0.2 0.2-1z" stroke="#c7c6c5" fill="#c7c6c5"/>
   <path id="path76" d="m346.86 684.33h-6.5l-2.5-0.5-2.5-0.5-1-0.5-1-0.5 0.2-0.3 0.3-0.2 0.3-0.2 0.2-0.3 0.2-0.3 0.3-0.2 0.5-1 0.5-1 4-9q4-9 8-30.5t4.3-35q0.2-13.5 9.7-11.3 9.5 2.3 10.3 3 0.7 0.8-0.8 21.8t-5.5 37-8 22.5-4.3 6.7q-0.2 0.3-6.7 0.3z" stroke="#4f4f51" fill="#4f4f51"/>
   <path id="path78" d="m396.36 445.33 0.5 1.5 0.5 2 0.5 2v1l-0.3 0.2-0.2 0.3-0.2 0.3-0.3 0.2-0.3-0.2-0.2-0.3-1-0.5-1-0.5-1.5-0.5-1.5-0.5-1.5-0.5q-1.5-0.5-35.5-13l-34-12.5-1-0.5-1-0.5-1-0.5-1-0.5-0.2-0.3-0.3-0.2v-2l0.3-0.2 0.2-0.3 0.2-0.3 0.3-0.2 0.3-0.2 0.2-0.3 0.2-0.3 0.3-0.2 0.3-0.2 0.2-0.3 1-0.5 1-0.5 0.2-0.3 0.3-0.2 6.3-3.8q6.2-3.7 12.2-5.2t13.5-1 15.3 4.8q7.7 4.2 13.7 10.2t10 14.5 4.5 10z" stroke="#a9afb1" fill="#a9afb1"/>
   <path id="path82" d="m661.36 621.83 2 0.5 1.5 0.5 1.5 0.5 1 0.5 1 0.5 0.5 0.3 0.5 0.2-1.8 21.5q-1.7 21.5-6.2 37t-8.8 19.7q-4.2 4.3-9.2 4.3h-5l-3.5-0.5-3.5-0.5-0.2-0.3-0.3-0.2-0.3-0.2-0.2-0.3 0.2-0.3 0.3-0.2 0.5-1 0.5-1 0.3-0.2 0.2-0.3 0.2-0.3 0.3-0.2 0.3-0.2q0.2-0.3 2-4 1.7-3.8 6.2-20.3t5.8-36l1.2-19.5v-1q0-1 5.5-0.2 5.5 0.7 7.5 1.2z" stroke="#4f5150" fill="#4f5150"/>
   <path id="path84" d="m119.36 548.03 1-0.2 3.8 3.5q3.7 3.5 5.2 6.5t4 7.5 5 17 3 19 0.8 6.5h0.2l-0.2 9-0.3 9-0.3 0.2-0.2 0.3h-2l-0.2-0.3-0.3-0.2-0.5-1-0.5-1-0.5-1-0.5-1-0.5-1-0.5-1-0.5-1.5q-0.5-1.5-4-8t-12.2-19.3q-8.8-12.7-14.8-17.2t-12-4.5h-6l-0.2 0.3-0.3 0.2-0.3 0.2-0.2 0.3-1 0.3-1 0.2 0.2-1 0.3-1 0.5-1 0.5-1 0.3-0.2 0.2-0.3 0.2-0.3 0.3-0.2 0.3-0.2 0.2-0.3 0.2-0.3 0.3-0.2 0.3-0.2 0.2-0.3 0.2-0.3 0.3-0.2 0.3-0.2 0.2-0.3 0.2-0.3 0.3-0.2 8.7-5.2q8.8-5.3 12.8-6 4-0.8 4-1.8t2-1.2q2-0.3 3-0.6z" stroke="#383537" fill="#383537"/>
   <path id="path86" d="m-51.643 348.83-1 0.5-1 0.5-1 0.5-1.5 0.3-1.5 0.2-0.2-1-0.3-1v-9l0.3-2q0.2-2 56.4-29 56.3-27 56.6-15 0.2 12-31.3 23.8-31.5 11.7-53 21.2t-22.5 10z" stroke="#fefefe" fill="#fefefe"/>
   <path id="path88" d="m118.16 542.83 0.2 1-14.5 6.8q-14.5 6.7-19.3 11.4-4.7 4.8-7.2 15.8t-2.5 30 1 26.5 1.5 10l0.5 2.5 0.5 2.5 0.5 2.5 0.3 1.5 0.2 1.5-1-0.2-1-0.3-0.2-0.3-0.3-0.2-0.5-1-0.5-1-0.5-1-0.5-1-0.5-1-0.5-1-0.5-1q-0.5-1-1-2.5t-4-19-4.5-34 3-30 9.3-19l5.2-5.5 1.5-0.2 1.5-0.3 0.2-0.3 0.3-0.2 6.3-2.2q6.2-2.3 11-1.6 4.7 0.8 10.2 5.3t5.8 5.5z" stroke="#232122" fill="#232122"/>
   <path id="path90" d="m390.36 198.03 1-0.2-0.2 0.5q-0.3 0.5-12 7.3l-11.8 6.7-0.2 0.3-0.3 0.2-0.3 0.2-0.2 0.3-1.5 0.5-1.5 0.5-1 0.5-1 0.5-0.2 0.3-0.3 0.2-0.3 0.2-0.2 0.3 0.2 0.3 0.3 0.2 0.3 0.5 0.2 0.5h-1.5q-1.5 0-1.7-1-0.3-1-31.6-1.2-31.2-0.3-43.2 0l-12 0.2h-18v-11h0.5l0.3 0.2 0.2 0.3 0.2 0.3 0.3 0.2 0.3-0.2 0.2-0.3 3.5-1.5q3.5-1.5 45-1.5t60 0 22-2 4.5-2.3z" stroke="#3d3e3d" fill="#3d3e3d"/>
   <g id="g92" transform="translate(-295.64 -154.17)" stroke="#fefefe" fill="#fefefe">
    <path id="path94" d="m843 552-0.5 1-0.5 1-0.5 1-0.5 1-0.5 1-0.3 1-0.2 1h-2l-0.2-1-0.3-1-0.5-1-0.5-1-0.3-0.2-0.2-0.3-0.2-0.3-0.3-0.2-13.5-23.5q-13.5-23.5-12.2-27.3 1.2-3.7 7.2-10.7t8.8-7.3q2.7-0.2 14.2 22.8t7.5 33-4.5 11z"/>
    <path id="path96" d="m885 555-0.5 1-0.5 1-0.5 1-0.5 1-0.5 1-0.3 0.2-0.2 0.3-0.2 0.3-0.3 0.2-0.3-0.2-0.2-0.3-0.2-0.3-0.3-0.2-0.5-1-0.5-1-0.5-1.5-0.5-1.5-5.5-10.5q-5.5-10.5-3.5-16.5t9.7-22.8q7.8-16.7 10-15.4 2.3 1.2 8.3 8.2t7.5 9.5 0 7-10.5 22-9.5 18.5z"/>
   </g>
   <path id="path100" d="m410.36 618.63 7 0.2v0.5l25.5 2.5q25.5 2.5 30.5 3l5 0.5 1 0.3 1 0.2-0.2 1.5-0.3 1.5-0.5 2-0.5 2-0.5 2-0.5 2-0.3 0.2-0.2 0.3h-6q-6 0-22.5-1.3l-16.5-1.2-2.5-0.2q-2.5-0.3-28.5-2.6l-26-2.2 0.5-7q0.5-7 14-5.8 13.5 1.3 20.5 1.6z" stroke="#1ec0fd" fill="#1ec0fd"/>
   <path id="path102" d="m765.86 338.83-1.5 0.5h-6l-1-0.3-1-0.2 0.2-1.5 0.3-1.5 0.3-0.2 0.2-0.3 0.2-0.3 0.3-0.2 0.5-1 0.5-1 4-6.5q4-6.5 4.5-8l0.5-1.5v-6l-0.3-0.2-0.2-0.3-1.5-0.3-1.5-0.2-0.2 1.5-0.3 1.5-0.5 1.5-0.5 1.5-0.5 1q-0.5 1-1.5 3l-1 2-0.5 1-0.5 1-0.3 0.2-0.2 0.3-0.2 0.3-0.3 0.2-0.5 1-0.5 1-0.3 0.2-0.2 0.3-0.2 0.3-0.3 0.2-0.3-0.2-0.2-0.3-0.2-0.3-0.3-0.2-3.3-24.8q-3.2-24.7 0.8-27.2t10.5-2 12.3 5.2q5.7 4.8 8.7 11.3t3 16.5-4.3 17.8q-4.2 7.7-9.7 11.2t-7 4z" stroke="#e0dede" fill="#e0dede"/>
   <path id="path104" d="m289.36 335.83q7-0.5 11 1.5t6.8 5.7q2.7 3.8 3.2 11.3t-2.2 11.7q-2.8 4.3-6.8 6.8t-9.5 3-11-2.2q-5.5-2.8-6.7-4.8-1.3-2-2.8-8t0.5-12 6.3-9.2q4.2-3.3 11.2-3.8z" stroke="#f34215" fill="#f34215"/>
   <path id="path108" d="m340.36 698.83-0.5-1-0.5-1-0.5-1-0.5-1-0.5-1-0.3-1.5-0.2-1.5 1.5 0.2 1.5 0.3 8-0.5q8-0.5 11.8-4.2 3.7-3.8 5-6 1.2-2.3 9.4-1.6 8.3 0.8 7.3 9.8t-5 15.5-8.7 9.7q-4.8 3.3-8.3 2.8t-8.7-4.8q-5.3-4.2-7.8-8.2t-3-5z" stroke="#fefefe" fill="#fefefe"/>
   <path id="path110" d="m258.86 605.03 8.5-0.2v0.5l20.5 2q20.5 2 25.5 2.5l5 0.5 2.5 0.5 2.5 0.5-0.2 0.3-0.3 0.2-0.5 1-0.5 1-0.3 0.2-0.2 0.3-0.2 0.3-0.3 0.2-0.5 1-0.5 1-0.3 0.2-0.2 0.3-0.2 0.3-0.3 0.2-0.3 0.2-0.2 0.3-0.2 0.3-0.3 0.2-0.3 0.2-0.2 0.3-0.2 0.3-0.3 0.2-0.3 0.2-0.2 0.3-0.2 0.3q-0.3 0.2-2 1.4-1.8 1.3-15.3 0.6l-13.5-0.8-1.5-0.2-1.5-0.3-5-0.5q-5-0.5-23-2l-18-1.5-2-0.3-2-0.2v-2l1-0.2 1-0.3 0.2-0.3 0.3-0.2 0.3-0.2 0.2-0.3 0.2-0.3 0.3-0.2 0.3-0.2 0.2-0.3 0.2-0.3 0.3-0.2 0.3-0.2 0.2-0.3 0.2-0.3 0.3-0.2 0.3-0.2 0.2-0.3 6-2.5q6-2.5 14.5-2.8z" stroke="#1ec0fd" fill="#1ec0fd"/>
   <path id="path112" d="m732.36 492.83 0.5 1 0.3 0.2 0.2 0.3 0.2 0.3 0.3 0.2 0.5 1.5 0.5 1.5 0.3 1.5 0.2 1.5-24-0.2-24-0.3-2-0.5-2-0.5 0.2-0.3 0.3-0.2 0.5-1.5 0.5-1.5 0.5-1 0.5-1 0.3-0.2 0.2-0.3 0.2-0.3 0.3-0.2 4.5-5.5q4.5-5.5 8.2-7.7 3.8-2.3 10.3-1.8t12.5 5 7.8 6.8q1.7 2.2 2.2 3.2z" stroke="#aaafb1" fill="#aaafb1"/>
   <path id="path116" d="m402.16 191.33 0.2-0.5 2.2 1q2.3 1 10.3 12t8.5 12l0.5 1 0.3 0.2 0.2 0.3 0.2 0.3 0.3 0.2 0.5 1 0.5 1 0.3 0.2 0.2 0.3 0.2 0.3 0.3 0.2 0.3 1 0.2 1-1-0.2-1-0.3-5.5-0.5q-5.5-0.5-32-2.2l-26.5-1.8-0.2-0.5-0.3-0.5-0.3-0.2-0.2-0.3 0.2-0.3 0.3-0.2 0.3-0.2 0.2-0.3 1-0.5 1-0.5 1.5-0.5 1.5-0.5 0.2-0.3 0.3-0.2 0.3-0.2 0.2-0.3 7.8-4.3q7.7-4.2 8-4.7l0.2-0.5 2.2-1q2.3-1 2.6-1.5l0.2-0.5 1.2-0.5q1.3-0.5 1.6-1l0.2-0.5 1-0.2 1-0.3 1-0.5 1-0.5 0.2-0.3 0.3-0.2 0.3-0.2 0.2-0.3 1-0.5 1-0.5 0.5-0.3 0.5-0.2h0.2q0.3 0 0.6-0.5l0.2-0.5 0.8-0.5q0.7-0.5 1-1z" stroke="#e9e9e9" fill="#e9e9e9"/>
   <path id="path118" d="m633.16 618.63 0.2-0.3 5.2 0.7q5.3 0.8 5.6 1.3l0.2 0.5-0.8 16.5q-0.7 16.5-4.2 32.5t-6.8 23.2q-3.2 7.3-3.4 7.6l-0.3 0.2-0.3 0.2-0.2 0.3-0.2 0.3-0.3 0.2-0.3 0.2-0.2 0.3-0.2 0.3-0.3 0.2-0.3 0.2-0.2 0.3-0.2 0.3-0.3 0.2-0.3 0.2-0.2 0.3h-3l-1-0.5-1-0.5-0.2-0.3-0.3-0.2-0.3-0.2-0.2-0.3-0.2-0.3-0.3-0.2-0.5-1-0.5-1-0.3-0.2-0.2-0.3-0.2-0.3-0.3-0.2-0.5-1-0.5-1v-1.5q0-1.5 4-7.5t6.3-15.5l2.2-9.5h0.5v-9l-0.3-1q-0.2-1-6.2-1.8l-6-0.7 0.2-0.3 0.3-0.2 0.3-0.2 0.2-0.3 0.2-0.3 0.3-0.2 0.5-1 0.5-1 0.3-0.2 0.2-0.3 0.2-0.3 0.3-0.2 0.5-1 0.5-1 0.3-0.2 0.2-0.3 0.2-0.3 0.3-0.2 0.3-0.2 0.2-0.3 1-1.5q1-1.5 4-1.5t6 0h3l0.2-0.3 0.3-0.2 0.5-1 0.5-1v-6l-0.3-0.2q-0.2-0.3-4.2-1l-4-0.8 0.2-1 0.3-1 0.5-1.5 0.5-1.5 0.5-1.5 0.5-1.5 0.5-1 0.5-1 0.3-0.2z" stroke="#ababb1" fill="#ababb1"/>
   <path id="path120" d="m-127.44 419.03 0.3-0.2 0.3 0.2 0.2 0.3h4l0.5 0.3 0.5 0.2 1.2 30.5q1.3 30.5 6.3 62.5t12 58.5 12.7 41.7q5.8 15.3 13.8 15.3t9 0.3l1 0.2 0.2-5q0.3-5 2.8-10t17.8-10.5l15.2-5.5-0.2-2.5q-0.3-2.5-5.3-22l-5-19.5-0.5-2.5-0.5-2.5-0.3-2-0.2-2h0.5l0.5 1 0.5 1 0.5 2 0.5 2 6.3 23q6.2 23 10.7 24.2 4.5 1.3 7.3 3.6 2.7 2.2 3 2.7l0.2 0.5 0.2 1 0.3 1 0.3 0.2 0.2 0.3-0.2 0.3-0.3 0.2-0.3 0.2-0.2 0.3 0.2 0.3 0.3 0.2 0.5 1 0.5 1 1 2.5q1 2.5 1.5 3.5l0.5 1 0.5 2 0.5 2 0.5 2 0.5 2 0.3 0.2 0.2 0.3h-2l-0.2-0.3-0.3-0.2-0.3-0.2-0.2-0.3-0.2-0.3-0.3-0.2-0.3-0.2-0.2-0.3-0.2-0.3-0.3-0.2-0.3-0.2-0.2-0.3-0.2-0.3-0.3-0.2-0.3-0.2-0.2-0.3-0.2-0.3-0.3-0.2-0.3-0.2q-0.2-0.3-4.2-3.8l-4-3.5-0.2-0.3-0.3-0.2-0.3-0.2-0.2-0.3-1-0.5-1-0.5-1-0.5-1-0.5h-3l-0.2 0.3-0.3 0.2-0.3 1-0.2 1 1 0.2 1 0.3 1 0.5 1 0.5 0.2 0.3 0.3 0.2 0.3 0.2 0.2 0.3 8.2 8.3q8.3 8.2 11.8 14.2t5.5 10 6 13.5 5 13.5 1.5 6.5l0.5 2.5 0.5 2.5 0.5 2.5 0.5 1 0.5 1 0.5-1 0.5-1h0.5l0.8 10.5q0.7 10.5 0.2 17t-0.8 9.5l-0.2 3 1.5-0.2 1.5-0.3 4.8-1.3q4.7-1.2 5-1.2h0.2v0.5l1.5 0.3 1.5 0.2v4h4v0.5l-1.5 0.5-1.5 0.5-2 0.5q-2 0.5-8.5 1.5t-13.5 0.3l-7-0.8-1.5-0.2-1.5-0.3-1-0.5-1-0.5-1.5-0.5q-1.5-0.5-9-5.2-7.5-4.8-7.5-5.8t-1-1.2q-1-0.3-5.8-6-4.7-5.8-11.2-17.8t-11.5-27-10.7-14.8q-5.8 0.3-18.8 0.3t-16.8-4.7q-3.7-4.8-4.7-10.8t1.3-8.2l2.2-2.3 0.2-0.3 0.3-0.2h2.5l-0.2-1.5-0.3-1.5-0.5-1-0.5-1-0.5-1.5q-0.5-1.5-6.5-19t-13.3-49l-7.2-31.5-0.2-3.5q-0.3-3.5-1.8-15l-1.5-11.5-0.3-1.5-0.2-1.5-0.2-2q-0.3-2-1.6-35l-1.2-33 0.5-0.2 0.5-0.3 0.2-0.3zm75.8 217.3-0.5 9.5-0.3 0.2-0.2 0.3-2.5 0.3-2.5 0.2-0.2-2-0.3-2-2-7.5q-2-7.5-1.5-13.5t2.8-8.8q2.2-2.7 9.7-5.2t7-1.2q-0.5 1.2-1.5 1.2t-3.8 7q-2.7 7-3.2 9.5t-1 12zm18.2-9.3 2.8-2.7 3.5 0.5q3.5 0.5 9.7 6.8 6.3 6.2 13.3 19.2t10.5 24.5 3 22-1 11-1 1.5l-0.5 1-0.3 0.2-0.2 0.3-1 0.5-1 0.5-0.2 0.3-0.3 0.2-0.3 0.2-0.2 0.3h-3q-3 0-4-0.5t-6.8-5.8q-5.7-5.2-12.7-18.2t-10-24.5-3-23 2.7-14.3zm-58.4 13.6-0.8-4.3 2-0.5 2-0.5 2-0.5q2-0.5 11-1t10.2 1.2q1.3 1.8 1.8 7.3t-11.2 6.3q-11.8 0.7-14-1.6-2.3-2.2-3-6.4z" stroke="#3d3235" fill="#3d3235"/>
   <path id="path122" d="m438.36 166.63v0.2l-0.2 0.5q-0.3 0.5-0.6 0.5h-0.2l-0.5 0.2q-0.5 0.3-1 0.6l-0.5 0.2-0.2 0.5q-0.3 0.5-0.6 0.5h-0.2l-0.5 0.2q-0.5 0.3-0.5 0.6v0.2h-1l-0.2 0.5q-0.3 0.5-0.6 0.5h-0.2l-0.2 0.5q-0.3 0.5-0.6 0.5h-0.2l-0.5 0.2q-0.5 0.3-2.5 1.6l-2 1.2-0.2 0.5q-0.3 0.5-0.6 0.5h-0.2v0.2q0 0.3-2.5 1.6l-2.5 1.2-0.2 0.5q-0.3 0.5-0.6 0.5h-0.2v0.2q0 0.3-1 0.8l-1 0.5-0.2 0.3-0.3 0.2-0.3 0.2-0.2 0.3 0.2 0.3 0.3 0.2 0.3 0.2 0.2 0.3 0.2 0.3 0.3 0.2 0.3 0.2 0.2 0.3 0.2 0.3 0.3 0.2 5.7 5q5.8 5 5.8 6t1 1 1 1 5.8 6q5.7 5 7.2 7t2 3.5l0.5 1.5v1l-0.5 2-0.5 2-0.3 1.5-0.2 1.5-4.5-0.2q-4.5-0.3-9-1l-4.5-0.8-0.2-1-0.3-1-0.3-0.2-0.2-0.3-0.2-0.3-0.3-0.2-0.5-1-0.5-1-0.3-0.2-0.2-0.3-0.2-0.3-0.3-0.2-0.5-1q-0.5-1-9-12.5t-11.2-11l-2.8 0.5-0.2 0.5q-0.3 0.5-0.6 0.5h-0.2l-0.5 0.2-0.5 0.3-1 0.5-1 0.5-0.2 0.3-0.3 0.2-0.3 0.2-0.2 0.3-1 0.5-1 0.5-1 0.3-1 0.2v-0.5l0.2-0.3 0.3-0.2 0.3-0.2 0.2-0.3 1-0.5 1-0.5 0.2-0.3 0.3-0.2 0.3-0.2 0.2-0.3 1-0.5 1-0.5 2-1.5q2-1.5 3-1.8l1-0.2-0.2-1-0.3-1-0.3-0.2-0.2-0.3-0.2-0.3-0.3-0.2-0.5-1-0.5-1-0.3-0.2-0.2-0.3-0.2-0.3-0.3-0.2-0.3-0.2q-0.2-0.3-1.2-1.8t-6-4l-5-2.5-0.2-0.3-0.3-0.2-0.3-0.2-0.2-0.3-1.5-0.5-1.5-0.5-0.2-0.3-0.3-0.2-0.3-0.2-0.2-0.3h4l1.5 0.5 1.5 0.5h3q3 0 11.2 3.7 8.3 3.8 10.6 3.6 2.2-0.3 9-5 6.7-4.8 7-5l0.2-0.3 4-2q4-2 4-1.7z" stroke="#274c67" fill="#274c67"/>
   <g id="g124" transform="translate(-295.64 -154.17)" stroke="#fefefe" fill="#fefefe">
    <path id="path126" d="m842.5 477 2.5-0.5 11 0.5q11 0.5 15 1.8 4 1.2-2.8 16.7-6.7 15.5-7.2 17l-0.5 1.5-0.3 1-0.2 1-1-0.2-1-0.3-0.2-0.3-0.3-0.2-0.5-1-0.5-1-0.5-1-0.5-1-0.5-1.5q-0.5-1.5-7-14l-6.5-12.5-0.5-1-0.5-1-0.5-1.5q-0.5-1.5-0.2-1.7 0.2-0.3 2.7-0.8z"/>
    <path id="path128" d="m863 850.8 3 0.2-0.2 1.5q-0.3 1.5-3 6.3-2.8 4.7-7.8 8.2t-10 4-8-1.2q-3-1.8-5-5-2-3.3-5-10.6-3-7.2 15-5.4 18 1.7 21 2z"/>
   </g>
   <path id="path134" d="m722.36 216.83 0.5 1 0.5 1.5 0.5 1.5 0.5 1.5 0.5 1.5 0.3 1 0.2 1h-2l-0.2-1-0.3-1-0.5-1-0.5-1-0.5-1.5-0.5-1.5-0.5-1.5q-0.5-1.5-8.5-18.5t-17.7-32.2l-9.8-15.3-0.2-0.3-0.3-0.2-0.3-0.2-0.2-0.3-0.2-0.3-0.3-0.2-0.3-0.2-0.2-0.3-1-0.5-1-0.5-0.2-0.3-0.3-0.2-0.3-0.2-0.2-0.3-1-0.5-1-0.5-0.2-0.3-0.3-0.2h-0.5v-0.2q0-0.3-11-5.8t-41-16.5-55-17.3l-25-6.2v-0.2q0-0.3-3-1l-3-0.8-1-0.2q-1-0.3-18.5-3.8t-59.5-9.5-86-9-90-3.5l-46-0.5-0.2 0.3-0.3 0.2v3l0.5 1.5q0.5 1.5 0.8 1.5h0.2l4.2 26.5q4.3 26.5 6.3 52.5t1.7 42.5q-0.2 16.5-7.2 17.3-7 0.7-11 1.2l-4 0.5-1.5 0.3-1.5 0.2v-4l1-0.2 1-0.3 1-0.3q1-0.2 2.8-8.7 1.7-8.5 2.2-30t-1-34.5-6.5-38l-5-25-0.3-0.2-0.2-0.3-0.2-0.3-0.3-0.2-0.3-0.2-0.2-0.3h-2l-0.2 0.3-0.3 0.2-0.3 0.2q-0.2 0.3-0.2 0.6v0.2l-1 0.2q-1 0.3-1 0.6v0.2l-1 0.2q-1 0.3-5.5 1.8t-23 8.5-43 18.5-29.5 15-5.2 5.2q-0.3 1.8-1 2-0.8 0.3-4.8 11l-4 10.8v3h-0.2q-0.3 0-0.8 1l-0.5 1-6 29.5q-6 29.5-8.3 42.7-2.2 13.3-3.4 17-1.3 3.8-1.8 8.3l-0.5 4.5v4l0.3 0.2 0.2 0.3h1l1-0.5 1-0.5 1.5-0.5 1.5-0.5 32-13q32-13 33.5-13.5t2-0.8l0.5-0.2h0.5l0.3-0.2 0.2-0.3 2-0.5 2-0.5 1.5-0.5 1.5-0.5h4l0.2 0.3 0.3 0.2 0.3 0.2 0.2 0.3 0.2 0.3 0.3 0.2 0.3 1 0.2 1-1 0.2-1 0.3-0.2 0.3-0.3 0.2h-0.5l-1 0.2-1 0.3-1.5 0.5q-1.5 0.5-19.5 7t-61.5 25-93 43l-49.5 24.5v0.5l-1 0.2-1 0.3-21.2 11.3q-21.3 11.2-21.6 11.4l-0.2 0.3-1 0.5-1 0.5-1.5 0.5-1.5 0.5h-1l-0.2-0.3-0.3-0.2 2.5-19.5q2.5-19.5 10-49.5t18.5-42.5 27.7-27.7q16.8-15.3 41.8-33.8t56-38 63-36.5 59.5-28.5 41.5-15.5 14-4.3v-0.2l17.5-2.2q17.5-2.3 59.5-2.3t88.5 4.5 90.5 12 81.5 17 64.5 19.5 43 19.5 21.8 15.2q5.7 5.8 15.7 22.3t16 30.5 6.5 15zm-769 100.8-3 0.2-0.2-1-0.3-1-0.5-1-0.5-1 0.5-13q0.5-13 2.5-29t6-31 8.3-20.2q4.2-5.3 5.2-5.6 1-0.2 1-1.2t29.5-22.2q29.5-21.3 41.5-28.3t24.5-11.7q12.5-4.8 3.7 53.7-8.7 58.5-38.4 74.3-29.8 15.7-53.3 26.7t-26.5 11.3z" stroke="#fbfbfc" fill="#fbfbfc"/>
   <path id="path138" d="m544.86 610.33-1.5-9.5 11.5 0.8q11.5 0.7 15.5 1l4 0.2-0.8 3.5q-0.7 3.5-1.2 5.5l-0.5 2-0.5 2q-0.5 2-0.8 3.5-0.2 1.5-12.2 1t-13.5-10z" stroke="#fefefe" fill="#fefefe"/>
   <path id="path140" d="m562.36 726.33h-2l-1.5-0.5-1.5-0.5-1.5-0.5-1.5-0.5-0.2-0.3-0.3-0.2-0.3-0.2-0.2-0.3 1-0.5 1-0.5 1-0.5 1-0.5 1-0.5 1-0.5 5.2-4.3q5.3-4.2 8.6-11.2 3.2-7 8.7-6.5t4 6-0.7 6q0.7 0.5-2.6 5.3-3.2 4.7-5.7 6.7t-7.5 3-7 1zm19.2-11.7q-0.2-0.3 0-0.6 0.3-0.2 0.3 0.3t-0.3 0.3zm-1.2 1.4q1-0.2 0.8 0.8-0.3 1-2 2-1.8 1-0.8-0.8 1-1.7 2-2z" stroke="#373737" fill="#373737"/>
   <path id="path142" d="m129.36 613.83 8.5 17 0.3 0.2 0.2 0.3-0.2 0.3-0.3 0.2-0.5 2-0.5 2-0.5 2-0.5 2-0.3-0.2-0.2-0.3-0.2-0.3-0.3-0.2-0.3-0.2-0.2-0.3-0.2-0.3-0.3-0.2-0.3-0.2-0.2-0.3-0.2-0.3-0.3-0.2h-0.5l-0.2-0.5-0.3-0.5h-0.5l-0.2-0.5-0.3-0.5-0.5-1q-0.5-1-9.8-17-9.2-16-12.7-18.8-3.5-2.7-8.5-3.2l-5-0.5-1 0.5-1 0.5-0.2 0.3-0.3 0.2-0.3 0.2-0.2 0.3-1.8 4.3q-1.7 4.2-1.2 17.7t4.5 30 12.7 33.3q8.8 16.7 14.8 22.7t12 6 8.8-4.7q2.7-4.8 3.2-13.3t0.2-11.5l-0.2-3 0.2-0.5 0.3-0.5v-5l-0.5-2-0.5-2-0.3-1.5-0.2-1.5 1.5 0.2 1.5 0.3 1 0.5 1 0.5 0.2 0.3 0.3 0.2 0.5 2.5 0.5 2.5 1 6q1 6 0.5 23.5t-1 20-1 4.5l-0.5 2-0.5 1-0.5 1-0.3 0.2-0.2 0.3h-1l-1.5-0.5-1.5-0.5-1.5-0.5q-1.5-0.5-3.5-1.5t-10-6.5-17.2-17.2q-9.3-11.8-17.3-28.8t-11-29.5-3-37 2.3-29.5q2.2-5 3.7-5.8 1.5-0.7 5.5-1.2t8.5 2 12.7 12.8q8.3 10.2 16.8 27.2z" stroke="#383538" fill="#383538"/>
   <path id="path144" d="m-51.643 636.33-0.5 9.5-0.3 0.2-0.2 0.3-2.5 0.3-2.5 0.2-0.2-2-0.3-2-2-7.5q-2-7.5-1.5-13.5t2.8-8.8q2.2-2.7 9.7-5.2t7-1.2q-0.5 1.2-1.5 1.2t-3.8 7q-2.7 7-3.2 9.5t-1 12z" stroke="#232121" fill="#232121"/>
   <path id="path146" d="m690.16 556.03 5.2 5.3 1 0.5 1 0.5 1 0.5 1 0.5 1 0.5 1 0.5h-8l-1.5-0.5q-1.5-0.5-2.5-1t-7-5-10.2-10.8q-4.3-6.2-6.3-15.7t-1-17.5 4.5-15.5 10.2-13.3q6.8-5.7 12.8-7.2t-0.8 5.2q-6.7 6.8-10.2 16.3t-3.5 22 3.5 21 8.8 13.7z" stroke="#a9aeb0" fill="#a9aeb0"/>
   <path id="path150" d="m313.86 461.33h-4.5l-0.2-0.3-0.3-0.2-0.3-0.2-0.2-0.3-0.2-0.3-0.3-0.2-0.5-1-0.5-1 0.5-7q0.5-7 3.8-12.8 3.2-5.7 21 0 17.7 5.8 2 14.6-15.8 8.7-20.3 8.7z" stroke="#dae4fe" fill="#dae4fe"/>
   <path id="path152" d="m547.86 311.83q4.5-0.5 14.5 0.5t18.5 4.5 16.7 9.8q8.3 6.2 14.3 14.7t9.5 18 4 20-0.5 15.5-6 14.5-12.3 15.7q-7.2 6.3-16.7 9.8t-18.5 4-14.5-0.5-15.5-5.5-17.2-10.8q-7.3-6.2-12.6-13.4-5.2-7.3-8.4-15.6-3.3-8.2-4.3-18.7t1.5-20 8-18 12.2-13.3q6.8-4.7 14.8-7.7t12.5-3.5zm-1 11 2.5-0.5 11 0.5q11 0.5 15 1.8 4 1.2-2.8 16.7-6.7 15.5-7.2 17l-0.5 1.5-0.3 1-0.2 1-1-0.2-1-0.3-0.2-0.3-0.3-0.2-0.5-1-0.5-1-0.5-1-0.5-1-0.5-1.5q-0.5-1.5-7-14l-6.5-12.5-0.5-1-0.5-1-0.5-1.5q-0.5-1.5-0.2-1.7 0.2-0.3 2.7-0.8zm0.5 75-0.5 1-0.5 1-0.5 1-0.5 1-0.5 1-0.3 1-0.2 1h-2l-0.2-1-0.3-1-0.5-1-0.5-1-0.3-0.2-0.2-0.3-0.2-0.3-0.3-0.2-13.5-23.5q-13.5-23.5-12.2-27.3 1.2-3.7 7.2-10.7t8.8-7.3q2.7-0.2 14.2 22.8t7.5 33-4.5 11zm42 3-0.5 1-0.5 1-0.5 1-0.5 1-0.5 1-0.3 0.2-0.2 0.3-0.2 0.3-0.3 0.2-0.3-0.2-0.2-0.3-0.2-0.3-0.3-0.2-0.5-1-0.5-1-0.5-1.5-0.5-1.5-5.5-10.5q-5.5-10.5-3.5-16.5t9.7-22.8q7.8-16.7 10-15.4 2.3 1.2 8.3 8.2t7.5 9.5 0 7-10.5 22-9.5 18.5z" stroke="#6f3505" fill="#6f3505"/>
   <path id="path154" d="m469.36 202.83v-1l5.5 6.8q5.5 6.7 60 17.7t62 13 9.5 2.5l2 0.5 0.5 0.3 0.5 0.2 3 0.5q3 0.5 5.2 4 2.3 3.5 2.8 4.5l0.5 1 0.3 0.2 0.2 0.3 0.2 0.3 0.3 0.2 0.5 1 0.5 1 0.3 0.2 0.2 0.3 0.2 0.3 0.3 0.2 0.5 1 0.5 1 0.3 0.2 0.2 0.3h-3l-1.5-0.5-1.5-0.5-2.5-0.5q-2.5-0.5-26.5-6.5l-24-6h-3l-1.5 0.5-1.5 0.5 0.2 0.3 0.3 0.2 0.3 0.2 0.2 0.3 0.2 0.3 0.3 0.2 0.3-0.2 0.2-0.3 0.2-0.3 0.3-0.2 0.3 0.2 0.2 0.3 0.2 0.3 0.3 0.2 0.3 0.2 0.2 0.3 2 0.5 2 0.5 44 12.5q44 12.5 84 28t41 16 2 0.8l1 0.2 0.2 1 0.3 1 0.5 1.5 0.5 1.5 0.5 3 0.5 3v5l-0.3 0.2-0.2 0.3h-3l-1-0.5-1-0.5-0.2-0.3-0.3-0.2-0.3-0.2-0.2-0.3-1-0.5q-1-0.5-11-5.5t-37.5-15.5-68.5-21.5-93-20.5-99-14.5-106-5.5l-59-0.5-0.2-0.3-0.3-0.2-0.3-0.2-0.2-0.3-0.2-0.3-0.3-0.2-0.5-1-0.5-1v-9l0.5-1q0.5-1 1.2-3l0.8-2 5.2-1q5.3-1 5-1.2-0.2-0.3-0.2-0.6v-0.2l12-0.2q12-0.3 43.2 0 31.3 0.2 31.6 1.2 0.2 1 1.7 1h1.5l26.5 1.8q26.5 1.7 32 2.2l5.5 0.5 1 0.3 1 0.2 4.5 0.8q4.5 0.7 9 1l4.5 0.2 20 2.8q20 2.7 23 3.2l3 0.5h6l-0.2-0.3-0.3-0.2-0.3-0.2-0.2-0.3-0.2-0.3-0.3-0.2-0.3-0.2-0.2-0.3-1-0.5-1-0.5-0.2-0.3-0.3-0.2-0.3-0.2-0.2-0.3-0.2-0.3-0.3-0.2-0.3-0.2-0.2-0.3-1-0.5q-1-0.5-3.5-2.5t-8.3-7.7l-5.7-5.8-0.3-0.2-0.2-0.3v-0.5l-0.5-0.2q-0.5-0.3-0.5-0.6v-1.2l-0.5-0.2q-0.5-0.3-0.5-0.6v-1.2l-0.5-0.2q-0.5-0.3-0.5-0.6v-1.2z" stroke="#142d3d" fill="#142d3d"/>
   <path id="path156" d="m342.86 400.33q11.5 0 21.5 4t17.8 10.7q7.7 6.8 13.2 17.8t6.5 22.5-1.5 22-8.2 19.5q-5.8 9-12 13.5-6.3 4.5-15 8.3-8.8 3.7-20.3 4.2t-20.5-2.5-16.8-8.7q-7.7-5.8-12.7-12.8t-8-15-3.5-19 2.5-21.5 7.5-17 11.8-12.7q7.2-6.3 16.7-9.8t21-3.5zm-23.5 109.7 6 4.3 1 0.5 1 0.5 1 0.5 1 0.5 1 0.3 1 0.2v2l-1-0.2-1-0.3-2-0.5-2-0.5-1-0.5-1-0.5-1.5-0.5q-1.5-0.5-5.5-2.5t-12-10-12.2-17.3q-4.3-9.2-4.3-24.2t4.5-25 9.8-15.2q5.2-5.3 12.2-9.8t12.5-5.5 0 2-12.3 9.7q-6.7 6.8-11.2 16.8t-5.5 21 1 20 8.3 19.5q6.2 10.5 12.2 14.7zm77-64.7 0.5 1.5 0.5 2 0.5 2v1l-0.3 0.2-0.2 0.3-0.2 0.3-0.3 0.2-0.3-0.2-0.2-0.3-1-0.5-1-0.5-1.5-0.5-1.5-0.5-1.5-0.5q-1.5-0.5-35.5-13l-34-12.5-1-0.5-1-0.5-1-0.5-1-0.5-0.2-0.3-0.3-0.2v-2l0.3-0.2 0.2-0.3 0.2-0.3 0.3-0.2 0.3-0.2 0.2-0.3 0.2-0.3 0.3-0.2 0.3-0.2 0.2-0.3 1-0.5 1-0.5 0.2-0.3 0.3-0.2 6.3-3.8q6.2-3.7 12.2-5.2t13.5-1 15.3 4.8q7.7 4.2 13.7 10.2t10 14.5 4.5 10zm-82.5 16h-4.5l-0.2-0.3-0.3-0.2-0.3-0.2-0.2-0.3-0.2-0.3-0.3-0.2-0.5-1-0.5-1 0.5-7q0.5-7 3.8-12.8 3.2-5.7 21 0 17.7 5.8 2 14.6-15.8 8.7-20.3 8.7zm13.5 50.5-1-0.5-1-0.5-1-0.5-0.2-0.3-0.3-0.2-0.3-0.2-0.2-0.3-1-0.5-1-0.5-0.2-0.3-0.3-0.2-0.3-0.2-0.2-0.3-0.2-0.3-0.3-0.2-0.3-0.2-0.2-0.3h5l9.5-0.5q9.5-0.5 17.7-4.2 8.3-3.8 11.6-5.8 3.2-2 3.7-3.2 0.5-1.3 1.5-1.6 1-0.2 6.8-10.7 5.7-10.5 7-20 1.2-9.5 6-7.5 4.7 2 3.7 15.5t-7.3 25.3q-6.2 11.7-11.7 15.7t-10 4.3q-4.5 0.2-4.5 1.2t-3.5 1.2q-3.5 0.3-10 0.3t-11.5-2-6-2.5z" stroke="#01747e" fill="#01747e"/>
   <path id="path158" d="m591.36 213.83v-1l10.2 4q10.3 4 26.6 19.2 16.2 15.3 48.7 26.8t33.5 12 2.5 1l1.5 0.5 1 0.5 1 0.5h2l0.2-0.3 0.3-0.2 0.3-0.2 0.2-0.3 0.2-0.3 0.3-0.2 0.3-0.2 0.2-0.3 0.2-0.3 0.3-0.2 0.3-1 0.2-1h2l-0.2 1-0.3 1-0.5 1-0.5 1-0.3 0.2-0.2 0.3-0.2 0.3-0.3 0.2-0.3 0.2-0.2 0.3-1 0.5q-1 0.5-1.2 0.8l-0.3 0.2-0.3 0.2-0.2 0.3-0.2 0.3-0.3 0.2-0.3 0.2-0.2 0.3-1 0.5q-1 0.5-4 1l-3 0.5 0.2 0.3 0.3 0.2 0.3 0.2 0.2 0.3 1.5 0.5 1.5 0.5 0.2 0.3 0.3 0.2 0.3 0.2 0.2 0.3 1.5 0.5 1.5 0.5 1 0.5 1 0.5 3 1q3 1 5 1.5l2 0.5 1 0.3 1 0.2 0.2-4.5 0.3-4.5 0.3 0.2 0.2 0.3 0.2 0.3 0.3 0.2 0.3 0.5 0.2 0.5h1.5l0.3 0.5 0.2 0.5 1 0.2 1 0.3v0.5l-0.2 0.5-0.3 0.5-0.3 0.2-0.2 0.3 0.2 0.3 0.3 0.2 0.5 1.5 0.5 1.5 0.5 1.5 0.5 1.5 0.3 3.5 0.2 3.5-1-0.2-1-0.3-1-0.5-1-0.5-1-0.5-1-0.5-1.5-0.5q-1.5-0.5-1.7-0.8-0.3-0.2-49.6-18.4-49.2-18.3-58-30.6l-8.7-12.2-0.3-0.2-0.2-0.3-0.2-0.3-0.3-0.2-0.5-1-0.5-1-0.3-0.2-0.2-0.3-0.2-0.3-0.3-0.2-0.5-1-0.5-1-0.3-0.2-0.2-0.3-0.2-0.3-0.3-0.2-0.3 0.2-0.2 0.3-0.2 0.3-0.3 0.2h-0.5l-0.2-0.5q-0.3-0.5-4.8-6l-4.5-5.5-0.5-1q-0.5-1-2.8-2-2.2-1-2.2-2zm53.2 50.8q-0.2-0.3 0-0.6 0.3-0.2 0.3 0.3t-0.3 0.3z" stroke="#294c65" fill="#294c65"/>
   <path id="path160" d="m77.357 359.83-2 0.5-2.5 0.3-2.5 0.2v-9l1-0.2 1-0.3 12-4q12-4 16.8-3.7 4.7 0.2 4 2.4-0.8 2.3-8.8 6.3t-12.5 5.5-6.5 2z" stroke="#b4c8d2" fill="#b4c8d2"/>
   <path id="path162" d="m212.86 61.026 0.5-0.2 0.2 1 0.3 1v1l-0.3 1-0.2 1h4v0.2q0 0.3-14 4.3t-41.5 15.5-59.5 28.5-63 36.5-56 38-41.8 33.8q-16.7 15.2-27.7 27.7t-18.5 42.5-10 49.5l-2.5 19.5 0.3 0.2 0.2 0.3h1l1.5-0.5 1.5-0.5 1-0.5 1-0.5 0.2-0.3q0.3-0.2 21.6-11.4l21.2-11.3 1-0.3 1-0.2h0.5l0.3 0.2 0.2 0.3 0.2 0.3 0.3 0.2 0.3 0.2 0.2 0.3-0.2 0.3-0.3 0.2v2l0.3-0.2 0.2-0.3h2l0.2 0.3 0.3 0.2 0.3 0.2 0.2 0.3-0.2 0.3-0.3 0.2 0.3 5.5q0.2 5.5-11.3 11.3-11.5 5.7-13.7 8-2.3 2.2-3.8 5.2t-8.8 7.2q-7.2 4.3-8.2 4.8l-1 0.5-0.2 0.3-0.3 0.2-0.3 0.2-0.2 0.3-1 0.5-1 0.5-0.2 0.3-0.3 0.2-0.3 0.2-0.2 0.3-1 0.3-1 0.2 0.2 1 0.3 1 0.3 0.2 0.2 0.3h1l0.2-0.3 0.3-0.2 0.3-0.2 0.2-0.3 1-0.5 1-0.5 1-0.5 1-0.5 1-0.5q1-0.5 10.5-5.5l9.5-5 1-0.5 1-0.5 1-0.5 1-0.5 2-0.3 2-0.2v3h-0.5l-0.3 0.2-0.2 0.3-1 0.5-1 0.5-0.2 0.3-0.3 0.2-0.3 0.2-0.2 0.3-1 0.5-1 0.5-18.2 10.7q-18.3 10.8-18.8 11.8t-0.8 9l-0.2 8-0.5-0.2-0.5-0.3h-4l-0.2-0.3-0.3-0.2-0.3 0.2-0.2 0.3-0.5 0.3-0.5 0.2v-9q0-9-3.8-12-3.7-3-4-12l-0.2-9 0.2-3q0.3-3 5.3-9t7.3-19.5l2.2-13.5h0.5l0.5-3 0.5-3 0.5-3q0.5-3 7.5-31.5t11-35 23.7-26.3l19.8-19.7 0.2-0.3 0.3-0.2h0.5l0.5-0.2q0.5-0.3 0.5-0.6v-0.2l0.5-0.2q0.5-0.3 0.5-0.6v-0.2l0.5-0.2q0.5-0.3 0.5-0.6v-0.2l0.5-0.2q0.5-0.3 0.5-0.6v-0.2l28-20.8q28-20.7 58.5-39.7t63.5-36.5 62.5-29.5 41-15.5 12-3.8z" stroke="#621978" fill="#621978"/>
   <path id="path164" d="m79.357 533.83h1l0.2 1.5q0.3 1.5 0.6 1.5h0.2l-5.2 5.5q-5.3 5.5-9.3 19t-3 30 4.5 34 4 19 1 2.5l0.5 1 0.5 1 0.5 1 0.5 1 0.5 1 0.5 1 0.5 1 0.3 0.2 0.2 0.3 1 0.3 1 0.2-0.2-1.5-0.3-1.5-0.5-2.5-0.5-2.5-0.5-2.5q-0.5-2.5-1.5-10t-1-26.5 2.5-30 7.2-15.8q4.8-4.7 19.3-11.4l14.5-6.8 0.8 1.5q0.7 1.5 1 2l0.2 0.5-1 0.2q-1 0.3-3 0.6-2 0.2-2 1.2t-4 1.8q-4 0.7-12.8 6l-8.7 5.2-0.3 0.2-0.2 0.3-0.2 0.3-0.3 0.2-0.3 0.2-0.2 0.3-0.2 0.3-0.3 0.2-0.3 0.2-0.2 0.3-0.2 0.3-0.3 0.2-0.3 0.2-0.2 0.3-0.2 0.3-0.3 0.2-0.5 1-0.5 1-0.3 1-0.2 1 1-0.2 1-0.3 0.2-0.3 0.3-0.2 0.3-0.2 0.2-0.3h6q6 0 12 4.5t14.8 17.2q8.7 12.8 12.2 19.3t4 8l0.5 1.5 0.5 1 0.5 1 0.5 1 0.5 1 0.5 1 0.5 1 0.3 0.2 0.2 0.3h2l0.2-0.3 0.3-0.2 0.3-9 0.2-9 0.8-1q0.7-1 1.2 3.5t1 7.5l0.5 3 0.3 1 0.2 1 1-0.2 1-0.3 1.8-0.7q1.7-0.8 2-0.8h0.2v0.2q0 0.3 1 0.3h1v-0.5l21.8-2.5q21.7-2.5 23.7-6.5t2.5-5l0.5-1 0.5-1 0.5-1 0.5-1 0.5-1 0.5-1 0.5-1h0.5v0.5l1 0.5 1 0.5 0.5 0.3 0.5 0.2v0.5l-0.2 0.3-0.3 0.2-0.5 1-0.5 1-1 2q-1 2-1.5 3.5l-0.5 1.5-0.5 1-0.5 1-0.3 1-0.2 1h7q7 0 9-3.8 2-3.7 2.2-4l0.3-0.2 0.3-0.2 0.2-0.3 0.2-0.3 0.3-0.2 0.3-0.2 0.2-0.3 0.2-0.3 0.3-0.2 0.3-0.2 0.2-0.3 0.2-0.3 0.3-0.2 0.3-0.2 0.2-0.3 0.2-0.3 0.3-0.2 0.3-0.2 0.2-0.3 0.2-0.3 0.3-0.2h1v2l-0.3 0.2-0.2 0.3 0.2 0.3 0.3 0.2 0.3 0.2 0.2 0.3-0.2 0.3-0.3 0.2-0.3 0.2-0.2 0.3-0.2 0.3-0.3 0.2-0.3 0.2-0.2 0.3-0.2 0.3-0.3 0.2-0.5 1-0.5 1-0.3 0.2-0.2 0.3-0.2 0.3-0.3 0.2-0.3 1.5-0.2 1.5 1.5 0.2 1.5 0.3h2l0.2-0.3 0.3-0.2 0.3-0.2 0.2-0.3 0.2-0.3 0.3-0.2 0.3-0.2 0.2-0.3 0.2-0.3 0.3-0.2 0.3-0.2 0.2-0.3 5-3.5q5-3.5 10-5t12-1.5h7l4.5 0.5 4.5 0.5-3 0.5-3 0.5-0.5 0.3-0.5 0.2-8.5 0.2q-8.5 0.3-14.5 2.8l-6 2.5-0.2 0.3-0.3 0.2-0.3 0.2-0.2 0.3-0.2 0.3-0.3 0.2-0.3 0.2-0.2 0.3-0.2 0.3-0.3 0.2-0.3 0.2-0.2 0.3-0.2 0.3-0.3 0.2-0.3 0.2-0.2 0.3-1 0.3-1 0.2v2l2 0.2 2 0.3 18 1.5q18 1.5 23 2l5 0.5 1.5 0.3 1.5 0.2v0.5l-3 0.5-3 0.5-1.5 0.5-1.5 0.5v0.5l-2-0.2q-2-0.3-18.5-1.8t-42-1.5-46.5 3-22.2 4.3q-1.3 1.2-2.8 6.7t-0.2 15q1.2 9.5 4.7 10.3 3.5 0.7 30 2.7l26.5 2v0.5l-1.5 0.2-1.5 0.3-3.5 0.3-3.5 0.2v2h-14l0.8 19q0.7 19-0.3 27t-1.3 11l-0.2 3 1-0.2 1-0.3 2.5-0.5q2.5-0.5 13-4.5t12.7-7.7q2.3-3.8 2-1.6-0.2 2.3 3.3 0.3t7.7-8.3l4.3-6.2 0.3-1 0.2-1h0.5l0.3 0.2 0.2 0.3h5l0.2-0.3 0.3-0.2h0.5l-0.2 1-0.3 1-0.5 1-0.5 1-0.5 1.5-0.5 1.5-0.5 1q-0.5 1-3 4.5t-9 9-16.2 9.7q-9.8 4.3-24.8 7.3l-15 3-1.5 0.3-1.5 0.2-1-0.2-1-0.3-4-0.5q-4-0.5-9.5-2t-16-7.8q-10.5-6.2-13.5-10.2t-4-4-8.2-10.5q-7.3-10.5-14.6-26.5l-7.2-16-3.5-0.2-3.5-0.3-3-0.3-3-0.2-0.2 20.5q-0.3 20.5-3.3 28t-10.3 13.7q-7.2 6.3-9.7 7.3t-4 1.3l-1.5 0.2h-4v-4l-1.5-0.2-1.5-0.3v-0.5l1.5-0.2 1.5-0.3 1.5-0.5q1.5-0.5 7-3.5t8.3-6.7q2.7-3.8 3.2-22.3t-1.2-27q-1.8-8.5-13.8-9.5t-12.2 0q-0.3 1-0.6 0-0.2-1-6.2-1.2l-6-0.3-2-0.3-2-0.2 0.2 2 0.3 2 3 9.5q3 9.5 3.5 12.5l0.5 3 0.3 3 0.2 3h-0.5l-0.5 1-0.5 1-0.5-1-0.5-1-0.5-2.5-0.5-2.5-0.5-2.5q-0.5-2.5-1.5-6.5t-5-13.5-6-13.5-5.5-10-11.8-14.2l-8.2-8.3-0.2-0.3-0.3-0.2-0.3-0.2-0.2-0.3-1-0.5-1-0.5-1-0.3-1-0.2 0.2-1 0.3-1 0.3-0.2 0.2-0.3h3l1 0.5 1 0.5 1 0.5 1 0.5 0.2 0.3 0.3 0.2 0.3 0.2 0.2 0.3 4 3.5q4 3.5 4.2 3.8l0.3 0.2 0.3 0.2 0.2 0.3 0.2 0.3 0.3 0.2 0.3 0.2 0.2 0.3 0.2 0.3 0.3 0.2 0.3 0.2 0.2 0.3 0.2 0.3 0.3 0.2 0.3 0.2 0.2 0.3 0.2 0.3 0.3 0.2 0.3 0.2 0.2 0.3h2l-0.2-0.3-0.3-0.2-0.5-2-0.5-2-0.5-2-0.5-2-0.5-1q-0.5-1-1.5-3.5l-1-2.5-0.5-1-0.5-1-0.3-0.2-0.2-0.3 0.2-0.3 0.3-0.2 0.3-0.2 0.2-0.3-0.2-0.3-0.3-0.2-0.3-1-0.2-1h0.5l0.3 0.2 0.2 0.3 0.2 0.3 0.3 0.2 0.3 0.2 0.2 0.3 0.2 0.3 0.3 0.2 0.3 0.2 0.2 0.3 0.2 0.3 0.3 0.2 0.3 0.2 0.2 0.3 0.2 0.3 0.3 0.2 0.5 1 0.5 1 6.3 19q6.2 19 12.2 20.2 6 1.3 16 1.8t26 0.8l16 0.2-0.2-1.5-0.3-1.5-0.5-1q-0.5-1-2-6t-5-27.5-3.5-32 4-23 7.3-17.7l3.2-4.3 1-0.5q1-0.5 2.5-1.2 1.5-0.8 1.5-1.8t1-1zm50 80 8.5 17 0.3 0.2 0.2 0.3-0.2 0.3-0.3 0.2-0.5 2-0.5 2-0.5 2-0.5 2-0.3-0.2-0.2-0.3-0.2-0.3-0.3-0.2-0.3-0.2-0.2-0.3-1-0.3q-1-0.2 3.8 14.8 4.7 15 5.2 17l0.5 2 0.5 3 0.5 3h0.5l0.2-0.5 0.3-0.5v-5l-0.5-2-0.5-2-0.3-1.5-0.2-1.5 1.5 0.2 1.5 0.3 1 0.5 1 0.5 0.2 0.3 0.3 0.2 0.5 2.5 0.5 2.5 1 6q1 6 0.5 23.5t-1 20-1 4.5l-0.5 2-0.5 1-0.5 1-0.3 0.2-0.2 0.3h-1l-1.5-0.5-1.5-0.5-1.5-0.5q-1.5-0.5-3.5-1.5t-10-6.5-17.2-17.2q-9.3-11.8-17.3-28.8t-11-29.5-3-37 2.3-29.5q2.2-5 3.7-5.8 1.5-0.7 5.5-1.2t8.5 2 12.7 12.8q8.3 10.2 16.8 27.2z" stroke="#5d0373" fill="#5d0373"/>
   <path id="path166" d="m362.16 346.33-0.8-3.5h1q1 0 1 1t15.2 12q15.3 11 27 20.5 11.8 9.5 11.8 10.5t11.2 11.5q11.3 10.5 27.3 29t30 39.5 26 45 16.3 34.8q4.2 10.7 32.2 13.2t39.2-22.2q11.3-24.8 22.6-44.6 11.2-19.7 21.7-33.7t11-14.3l0.5-0.2h0.5l0.3-0.2 0.2-0.3 0.2-0.3 0.3-0.2 0.3-0.2 0.2-0.3 1.5-0.5 1.5-0.5 1.5-0.5 1.5-0.5 0.2-0.3 0.3-0.2 10.5-10.5q10.5-10.5 10.8-10.7l0.2-0.3 1-0.5 1-0.5 0.2-0.3 0.3-0.2 0.3-0.2 0.2-0.3 0.2-0.3 0.3-0.2 0.3-0.2 0.2-0.3 0.2-0.3 0.3-0.2 0.3-0.2 0.2-0.3 0.2-0.3 0.3-0.2 0.3-0.2 0.2-0.3h2l-0.2 0.3-0.3 0.2-0.3 0.2-0.2 0.3-0.2 0.3-0.3 0.2-0.3 0.2-0.2 0.3-0.2 0.3-0.3 0.2-0.3 0.2-0.2 0.3-0.2 0.3-0.3 0.2-0.3 0.2-0.2 0.3-0.2 0.3-0.3 0.2-0.3 0.2-0.2 0.3-0.2 0.3-0.3 0.2-0.3 0.2-0.2 0.3-0.2 0.3-0.3 0.2-0.3 0.2q-0.2 0.3-14 15l-13.7 14.8-0.3 0.2-0.2 0.3-0.2 0.3-0.3 0.2-0.3 0.2-0.2 0.3-0.2 0.3-0.3 0.2-0.5 1-0.5 1-0.3 0.2-0.2 0.3-0.2 0.3-0.3 0.2-0.3 0.2-0.2 0.3-0.2 0.3-0.3 0.2-0.3 0.2-0.2 0.3h3l1-0.3 1-0.2-11.8 17q-11.7 17-23.7 39.5t-16.5 33-5 12l-0.5 1.5-0.5 1-0.5 1v2l0.3 0.2 0.2 0.3h14q14 0 15.8-1.7 1.7-1.8 2.2-2.8l0.5-1 0.3-0.2 0.2-0.3 0.2-0.3 0.3-0.2 0.5-1 0.5-1 0.3-0.2 0.2-0.3 1.5-0.3 1.5-0.2-0.2 2.5-0.3 2.5-0.5 1-0.5 1-1 3q-1 3-1.5 4l-0.5 1-0.5 1-0.5 1-0.5 1-0.5 1-0.3 0.2-0.2 0.3v0.5l-0.5 0.2-0.5 0.3v0.5l-0.5 0.2-0.5 0.3-1 0.3-1 0.2 0.2-1 0.3-1 0.5-1q0.5-1 1.2-3.5l0.8-2.5-1.5 0.2-1.5 0.3-2.5 0.5q-2.5 0.5-6.5 2.2-4 1.8-4.2 2.8l-0.3 1-0.3 0.2-0.2 0.3-0.2 0.3-0.3 0.2-0.3 0.2-0.2 0.3-0.2 0.3-0.3 0.2-0.3 0.2-0.2 0.3-0.2 0.3-0.3 0.2-0.3 0.2-0.2 0.3-1 0.3-1 0.2-0.2-1-0.3-1h-0.5v-0.5l0.2-0.3 0.3-0.2 0.5-1 0.5-1 0.3-0.2 0.2-0.3 0.2-0.3 0.3-0.2 0.3-0.2 0.2-0.3 0.2-0.3 0.3-0.2 0.3-0.2 0.2-0.3 0.2-0.3 0.3-0.2 0.3-0.2 0.2-0.3 0.2-0.3 0.3-0.2 0.3-0.2 0.2-0.3-4-0.5q-4-0.5-106.5-11t-109-12-8.7-3.8l-2.3-2.2-0.5-1-0.5-1-0.3 0.2-0.2 0.3-0.2 0.3-0.3 0.2-0.5 1.5-0.5 1.5-0.5 2-0.5 2v5.5q0 5.5 3.7 9.3 3.8 3.7 16.8 4.7t20.5 1.3l7.5 0.2h0.2q0.3 0 0.6 0.5l0.2 0.5h9v0.5h-5.5q-5.5 0-25-1t-23-3.5l-3.5-2.5-0.2-0.3-0.3-0.2-0.3-0.2-0.2-0.3-0.2-0.3-0.3-0.2-0.3-0.2-0.2-0.3-0.2-0.3-0.3-0.2-0.3 3.5-0.2 3.5h-2l-0.2 2-0.3 2h-0.5l-0.2-2.5-0.3-2.5v-4.5q0-4.5 3-17l3-12.5 0.5-1 0.5-1 0.3-1 0.2-1h4l0.8 6.5q0.7 6.5 2.4 7.7 1.8 1.3 62.3 7.8t64 6.8l3.5 0.2-0.2-1-0.3-1-0.5-1-0.5-1-0.5-1.5q-0.5-1.5-4.5-11.5t-15.5-32-28.2-45.5q-16.8-23.5-17.8-23.5t-1.2-1q-0.3-1-20.3-21t-40.3-36.2l-20.2-16.3-0.2-0.3-0.3-0.2-0.3-0.2-0.2-0.3-1-0.5-1-0.5-0.2-0.3-0.3-0.2-0.3-0.2-0.2-0.3-0.2-0.3-0.3-0.2h-0.5l0.2-2 0.3-2 0.3 0.2 0.2 0.3 1 0.5 1 0.5 0.2 0.3 0.3 0.2 0.3 0.2 0.2 0.3 1 0.5 1 0.5 0.2 0.3 0.3 0.2 0.3 0.2 0.2 0.3 0.2 0.3 0.3 0.2 17.5 13.5q17.5 13.5 34.2 29.3 16.8 15.7 17 16l0.3 0.2 0.3 0.2 0.2 0.3 0.2 0.3 0.3 0.2 0.3 0.2 0.2 0.3 0.2 0.3 0.3 0.2 0.5 1 0.5 1 0.3 0.2 0.2 0.3 0.2 0.3 0.3 0.2 0.3 0.2 0.2 0.3h3l-0.2-0.3-0.3-0.2-0.3-0.2-0.2-0.3-0.2-0.3-0.3-0.2-0.3-0.2-0.2-0.3-0.2-0.3-0.3-0.2-0.3-0.2-0.2-0.3-0.2-0.3-0.3-0.2-0.3-0.2-0.2-0.3-0.2-0.3-0.3-0.2-0.3-0.2-0.2-0.3-0.2-0.3-0.3-0.2-0.3-0.2-0.2-0.3-0.2-0.3-0.3-0.2-0.3-0.2q-0.2-0.3-3.4-4-3.3-3.8-21.8-20.8t-35.2-29.5l-16.8-12.5-0.2-1q-0.3-1-1-4.5zm88.2 82.5v1l1 0.2 1 0.3 0.2 0.3 0.3 0.2 0.3 1 0.2 1-1-0.2-1-0.3-0.2-0.3-0.3-0.2-0.3-0.2-0.2-0.3-0.2-0.3-0.3-0.2-0.3-0.2-0.2-0.3-0.2-0.3-0.3-0.2-0.3-1q-0.2-1 0.8-1t1 1z" stroke="#07784d" fill="#07784d"/>
   <path id="path168" d="m64.157 318.63 0.2-0.3 1-0.3 1-0.2v13l0.8 36q0.7 36 6.2 74t10.2 57.8q4.8 19.7 11.8 18.7t22.2 11.3q15.3 12.2 20.8 18.7t8 18.5 4 26 2 21l0.5 7 0.3 0.2 0.2 0.3 0.5 0.3 0.5 0.2v0.5l-3 0.5-3 0.5-1 0.3-1 0.2-0.2-1-0.3-1-0.5-3q-0.5-3-1-7.5t-1.2-3.5l-0.8 1h-0.2q-0.3 0-0.8-6.5t-3-19-5-17-4-7.5-5.2-6.5l-3.8-3.5-0.2-0.5q-0.3-0.5-1-2l-0.8-1.5-0.2-1q-0.3-1-5.8-5.5t-10.2-5.3q-4.8-0.7-11 1.6l-6.3 2.2-0.3 0.2-0.2 0.3-1.5 0.3-1.5 0.2-0.5-0.2-0.5-0.3-0.2-0.3-0.3-0.2-0.3-0.2-0.2-0.3v-0.5l0.5-0.2 0.5-0.3v-0.5l0.5-0.2 0.5-0.3 0.2-0.3q0.3-0.2 0.8-0.7t-3.5-17-8.7-43l-4.8-26.5h0.5v-6q0-6-1.5-22t-1.5-55.5v-39.5l0.5-2 0.5-2 0.3-0.2z" stroke="#2b3b70" fill="#2b3b70"/>
   <path id="path170" d="m261.16 103.63-3.3 8.2-0.5 1.5-0.5 1.5-0.5 2.5-0.5 2.5-0.3-0.2-0.2-0.3-0.2-0.3-0.3-0.2-0.5-6.5q-0.5-6.5-1.5-17.5t0.7-12.2q1.8-1.3 13.8-2.6 12-1.2 11.8-0.2-0.3 1-3 2.8-2.8 1.7-7.3 7.2t-7.7 13.8z" stroke="#fdfefd" fill="#fdfefd"/>
   <path id="path172" d="m418.86 61.626 4.5 0.2 52.5 9.2q52.5 9.3 88.5 18.8t60.2 18.8q24.3 9.2 39.3 17.7t22 14.5 16.5 20.5 18.5 34 17 47 8.3 28.5l0.2 1 4-1.2q4-1.3 10.5-0.8t11.3 3.2q4.7 2.8 9.2 8.3t6.5 12.5 1.5 14.5-3.2 13.7q-2.8 6.3-7.8 11.3t-11.5 7-7 2-2 0.3l-1.5 0.2 1.2 39.5q1.3 39.5 1 45l-0.2 5.5h-0.5l-0.5-1.5-0.5-1.5-0.5-1.5-0.5-1.5-0.3 1.5-0.2 1.5h-2l-0.2-3.5q-0.3-3.5-0.6-5l-0.2-1.5-0.2-15-0.3-15-0.5-3-0.5-3-0.3 0.2-0.2 0.3-1 0.5-1 0.5-1.5 0.5-1.5 0.5-1 0.5q-1 0.5-14.5 8t-27.7 18.8q-14.3 11.2-27.3 25.2l-13 14-0.3 0.2-0.2 0.3-0.2 0.3-0.3 0.2-0.3 0.2-0.2 0.3-0.2 0.3-0.3 0.2-0.3 0.2-0.2 0.3-0.2 0.3-0.3 0.2-0.3 0.2-0.2 0.3v0.5l-1 0.2-1 0.3h-3l0.2-0.3 0.3-0.2 0.3-0.2 0.2-0.3 0.2-0.3 0.3-0.2 0.3-0.2 0.2-0.3 0.2-0.3 0.3-0.2 0.5-1 0.5-1 0.3-0.2 0.2-0.3 0.2-0.3 0.3-0.2 0.3-0.2 0.2-0.3 0.2-0.3 0.3-0.2 13.7-14.8q13.8-14.7 14-15l0.3-0.2 0.3-0.2 0.2-0.3 0.2-0.3 0.3-0.2 0.3-0.2 0.2-0.3 0.2-0.3 0.3-0.2 0.3-0.2 0.2-0.3 0.2-0.3 0.3-0.2 0.3-0.2 0.2-0.3 0.2-0.3 0.3-0.2 0.3-0.2 0.2-0.3 0.2-0.3 0.3-0.2 0.3-0.2 0.2-0.3 0.2-0.3 0.3-0.2 0.3-0.2 0.2-0.3h-2l-0.2 0.3-0.3 0.2-0.3 0.2-0.2 0.3-0.2 0.3-0.3 0.2-0.3 0.2-0.2 0.3-0.2 0.3-0.3 0.2-0.3 0.2-0.2 0.3-0.2 0.3-0.3 0.2-0.3 0.2-0.2 0.3-1 0.5-1 0.5-0.2 0.3q-0.3 0.2-10.8 10.7l-10.5 10.5-0.3 0.2-0.2 0.3-1.5 0.5-1.5 0.5-1.5 0.5-1.5 0.5-0.2 0.3-0.3 0.2-0.3 0.2-0.2 0.3-0.2 0.3-0.3 0.2h-0.5l0.2-1 0.3-1 0.3-0.2 0.2-0.3 0.2-0.3 0.3-0.2 0.3-0.2 0.2-0.3 0.2-0.3 0.3-0.2 0.3-0.2 0.2-0.3 0.2-0.3 0.3-0.2 0.3-0.2 0.2-0.3 0.2-0.3 0.3-0.2 0.3-0.2 0.2-0.3 0.2-0.3 0.3-0.2 14.7-14.8q14.8-14.7 31.8-26.2t30.2-17.8q13.3-6.2 11.3-32.7t-2.5-30.5l-0.5-4-0.5-1-0.5-1-0.3-0.2-0.2-0.3-0.2-0.3-0.3-0.2-0.3-0.2-0.2-0.3-1-0.5-1-0.5-0.2-0.3-0.3-0.2h-0.5l-1-0.2q-1-0.3-2-0.8t-41-16-84-28l-44-12.5-2-0.5-2-0.5-0.2-0.3-0.3-0.2-0.3-0.2-0.2-0.3-0.2-0.3-0.3-0.2-0.3 0.2-0.2 0.3-0.2 0.3-0.3 0.2-0.3-0.2-0.2-0.3-0.2-0.3-0.3-0.2-0.3-0.2-0.2-0.3 1.5-0.5 1.5-0.5h3l24 6q24 6 26.5 6.5l2.5 0.5 1.5 0.5 1.5 0.5h3l-0.2-0.3-0.3-0.2-0.5-1-0.5-1-0.3-0.2-0.2-0.3-0.2-0.3-0.3-0.2-0.5-1-0.5-1-0.3-0.2-0.2-0.3-0.2-0.3-0.3-0.2-0.5-1q-0.5-1-2.8-4.5-2.2-3.5-5.2-4l-3-0.5v-0.5l2-0.3 2-0.2-0.2-1-0.3-1-0.5-1-0.5-1-0.3-0.2-0.2-0.3-0.2-0.3-0.3-0.2-0.3-0.2-0.2-0.3-0.2-0.3-0.3-0.2-0.3-0.2-0.2-0.3-0.2-0.3-0.3-0.2-0.5-1-0.5-1-0.3-0.2-0.2-0.3-0.2-0.3-0.3-0.2-0.3-0.2-0.2-0.3v-0.5h0.5l0.3-0.2 0.2-0.3 0.2-0.3 0.3-0.2 0.3 0.2 0.2 0.3 0.2 0.3 0.3 0.2 0.5 1 0.5 1 0.3 0.2 0.2 0.3 0.2 0.3 0.3 0.2 0.5 1 0.5 1 0.3 0.2 0.2 0.3 0.2 0.3 0.3 0.2 8.7 12.2q8.8 12.3 15 15 6.3 2.8 7.3 1.3t1.3 0.5q0.2 2 30.2 12.2 30 10.3 42 15.3t13.5 5.5l1.5 0.5 1 0.5 1 0.5 1 0.5 1 0.5 1 0.3 1 0.2-0.2-3.5-0.3-3.5-0.5-1.5-0.5-1.5-0.3-1.5q-0.2-1.5-1.2-1.7-1-0.3-2-2l-1-1.8h1.5l0.3 0.5 0.2 0.5h0.2q0.3 0 0.6 0.5l0.2 0.5h1l-0.2-3q-0.3-3-0.8-5t-7-25.5-16.5-47-19.7-38.7l-9.8-15.3-0.2-0.3-0.3-0.2-0.3-0.2-0.2-0.3-0.2-0.3-0.3-0.2-0.3-0.2-0.2-0.3-0.2-0.3-0.3-0.2-0.3-0.2-0.2-0.3-1-0.5-1-0.5-0.2-0.3-0.3-0.2-0.3-1-0.2-1h0.5l0.3 0.2 0.2 0.3 1 0.5 1 0.5 0.2 0.3 0.3 0.2 0.3 0.2 0.2 0.3 1 0.5 1 0.5 0.2 0.3 0.3 0.2 0.3 0.2 0.2 0.3 0.2 0.3 0.3 0.2 0.3 0.2 0.2 0.3 9.8 15.3q9.7 15.2 17.7 32.2t8.5 18.5l0.5 1.5 0.5 1.5 0.5 1.5 0.5 1 0.5 1 0.3 1 0.2 1h2l-0.2-1-0.3-1-0.5-1.5-0.5-1.5-0.5-1.5-0.5-1.5-0.5-1q-0.5-1-6.5-15t-16-30.5-15.7-22.3q-5.8-5.7-21.8-15.2t-43-19.5-64.5-19.5-81.5-17-90.5-12-88.5-4.5-59.5 2.3l-17.5 2.2h-4l0.2-1 0.3-1v-1l-0.3-1-0.2-1 1.5-0.2 1.5-0.3 14.5-2.5q14.5-2.5 65.5-2.5t84.5 3 38 3.3zm347 277.2-1.5 0.5h-6l-1-0.3-1-0.2 0.2-1.5 0.3-1.5 0.3-0.2 0.2-0.3 0.2-0.3 0.3-0.2 0.5-1 0.5-1 4-6.5q4-6.5 4.5-8l0.5-1.5v-6l-0.3-0.2-0.2-0.3-1.5-0.3-1.5-0.2-0.2 1.5-0.3 1.5-0.5 1.5-0.5 1.5-0.5 1q-0.5 1-1.5 3l-1 2-0.5 1-0.5 1-0.3 0.2-0.2 0.3-0.2 0.3-0.3 0.2-0.5 1-0.5 1-0.3 0.2-0.2 0.3-0.2 0.3-0.3 0.2-0.3-0.2-0.2-0.3-0.2-0.3-0.3-0.2-3.3-24.8q-3.2-24.7 0.8-27.2t10.5-2 12.3 5.2q5.7 4.8 8.7 11.3t3 16.5-4.3 17.8q-4.2 7.7-9.7 11.2t-7 4z" stroke="#6b6311" fill="#6b6311"/>
   <path id="path174" d="m601.36 628.63 3 0.2-0.2 1-0.3 1-0.5 1.5-0.5 1.5-0.5 1q-0.5 1-9.2 22-8.8 21-57.6 16.5-48.7-4.5-55-4.5h-6.2l0.2-1 0.3-1 5.7-23.5q5.8-23.5 61.8-19.3 56 4.3 59 4.6z" stroke="#f6fb00" fill="#f6fb00"/>
   <path id="path176" d="m319.36 510.03 6 4.3 1 0.5 1 0.5 1 0.5 1 0.5 1 0.3 1 0.2v2l-1-0.2-1-0.3-2-0.5-2-0.5-1-0.5-1-0.5-1.5-0.5q-1.5-0.5-5.5-2.5t-12-10-12.2-17.3q-4.3-9.2-4.3-24.2t4.5-25 9.8-15.2q5.2-5.3 12.2-9.8t12.5-5.5 0 2-12.3 9.7q-6.7 6.8-11.2 16.8t-5.5 21 1 20 8.3 19.5q6.2 10.5 12.2 14.7z" stroke="#a7adb1" fill="#a7adb1"/>
   <path id="path178" d="m216.36 76.826 1-0.5h2l0.2 0.3 0.3 0.2 0.3 0.2 0.2 0.3 0.2 0.3 0.3 0.2 5 25q5 25 6.5 38t1 34.5-2.2 30q-1.8 8.5-2.8 8.7l-1 0.3-1 0.3-1 0.2v4l1.5-0.2 1.5-0.3 4-0.5q4-0.5 11-1.2 7-0.8 7.2-17.3 0.3-16.5-1.7-42.5t-6.3-52.5l-4.2-26.5 0.2-1q0.3-1 3.3 11t7 47 4.3 52.5l0.2 17.5v11h18v0.2q0 0.3 0.2 0.6 0.3 0.2-5 1.2l-5.2 1-2.5 0.2q-2.5 0.3-9 0.8l-6.5 0.5-0.2 0.3-0.3 0.2 3.3 34q3.2 34 25.7 42.2 22.5 8.3 45.7 20.6 23.3 12.2 33 18.4 9.8 6.3 10.3 6.6l0.5 0.2v0.2q0 0.3 0.5 0.6l0.5 0.2 0.2 3q0.3 3 0.6 4l0.2 1 16.8 12.5q16.7 12.5 35.2 29.5t21.8 20.8q3.2 3.7 3.4 4l0.3 0.2 0.3 0.2 0.2 0.3 0.2 0.3 0.3 0.2 0.3 0.2 0.2 0.3 0.2 0.3 0.3 0.2 0.3 0.2 0.2 0.3 0.2 0.3 0.3 0.2 0.3 0.2 0.2 0.3 0.2 0.3 0.3 0.2 0.3 0.2 0.2 0.3 0.2 0.3 0.3 0.2 0.3 0.2 0.2 0.3 0.2 0.3 0.3 0.2 0.3 0.2 0.2 0.3 0.2 0.3 0.3 0.2 0.3 0.2 0.2 0.3 0.2 0.3 0.3 0.2 0.3 0.2 0.2 0.3 0.2 0.3 0.3 0.2 0.3 1 0.2 1 1 0.2 1 0.3 0.2 0.3 0.3 0.2 0.3 1 0.2 1-1-0.2-1-0.3-0.2-0.3-0.3-0.2-0.3-0.2-0.2-0.3-0.2-0.3-0.3-0.2-0.3-0.2-0.2-0.3-0.2-0.3-0.3-0.2-0.3-0.2-0.2-0.3-0.2-0.3-0.3-0.2-0.3-0.2-0.2-0.3-0.2-0.3-0.3-0.2-0.3-1q-0.2-1-1.2-1.2l-1-0.3-0.2-0.3-0.3-0.2-0.3-0.2-0.2-0.3-0.2-0.3-0.3-0.2-0.5-1-0.5-1-0.3-0.2-0.2-0.3-0.2-0.3-0.3-0.2-0.3-0.2-0.2-0.3-0.2-0.3-0.3-0.2-0.3-0.2q-0.2-0.3-17-16-16.7-15.8-34.2-29.3l-17.5-13.5-0.3-0.2-0.2-0.3-0.2-0.3-0.3-0.2-0.3-0.2-0.2-0.3-1-0.5-1-0.5-0.2-0.3-0.3-0.2-0.3-0.2-0.2-0.3-1-0.5-1-0.5-0.2-0.3-0.3-0.2-0.3 2-0.2 2-0.5-0.2q-0.5-0.3-8-5.3t-31-18-46.5-23l-23-10-1.5-0.5-1.5-0.5-0.2-0.3-0.3-0.2-1.5 55q-1.5 55-6.5 98t-12 74.5-12.5 47.5-6 17.5l-0.5 1.5-0.5 1-0.5 1-0.5 1.5-0.5 1.5-0.3 0.5-0.2 0.5-0.5-0.2-0.5-0.3-1-0.5-1-0.5v-0.5l0.2-1.5 0.3-1.5 0.5-1 0.5-1 0.5-1.5q0.5-1.5 7-21.5t13-51 11-75 5.2-95q0.8-51-12.2-53.8-13-2.7-33.5-3.2t-39.5 1.8l-19 2.2 0.2-0.5 0.3-0.5 0.3-0.2 0.2-0.3-0.2-0.3-0.3-0.2-0.3-0.2-0.2-0.3h-8l-2.5 0.5q-2.5 0.5-27.5 6.5l-25 6-1.5 0.5-1.5 0.5-2 0.3-2 0.2 0.2-1 0.3-1 0.3-0.2 0.2-0.3 1-0.5 1-0.5 1.5-0.5 1.5-0.5 23-6q23-6 25-6.5l2-0.5 1-0.3 1-0.2-0.2-1q-0.3-1-0.6-2-0.2-1-2.2-1h-2v-0.5l25-3.5q25-3.5 46-3t30.5 2 12 1.8l2.5 0.2-0.2-5.5q-0.3-5.5-1.3-16t-8-19.5l-7-9-0.3-0.2-0.2-0.3-0.2-0.3-0.3-0.2-0.3-0.2-0.2-0.3h-2l-0.2 0.3-0.3 0.2-0.5 1q-0.5 1-2.8 3.8-2.2 2.7-8.2 6.2t-14 4-11-0.5-8.8-5.3q-5.7-4.2-7.4-4.2h-1.8v-1q0-1-1.5-1.5l-1.5-0.5h0.5l0.3-0.2 0.2-0.3 1-0.3 1-0.2-0.2-1-0.3-1-0.3-0.2-0.2-0.3-0.2-0.3-0.3-0.2-0.3-0.2-0.2-0.3h-4l-1.5 0.5-1.5 0.5-2 0.5-2 0.5-0.2 0.3-0.3 0.2h-0.5l-0.2-0.5-0.3-0.5-0.3-0.2-0.2-0.3 1-0.5 1-0.5 1.5-0.5 1.5-0.5 3.2-1.3q3.3-1.2 2.3-5.7t-0.5-15.5 4.5-19 9.7-12.2q5.8-4.3 8.8-5.3t11-0.5 13.5 3.2q5.5 2.8 5.5 3.8t1 1 5.8 8.5q4.7 8.5 5.2 11t0.8 7.5l0.2 5h2l0.2-1.5 0.3-1.5 0.5-1.5 0.5-1.5 0.5-2.5q0.5-2.5 0.5-31t-2.7-31.7l-2.8-3.3-0.2-0.3-0.3-0.2-0.3-0.2-0.2-0.3-1-0.5-1-0.5-0.2-0.3-0.3-0.2-0.3-0.2-0.2-0.3 0.5-0.3 0.5-0.2h1.5l0.3 0.5 0.2 0.5 1.8 1q1.7 1 2 1.2l0.2 0.3 0.2 0.3 0.3 0.2 0.3 0.2 0.2 0.3 0.2 0.3 0.3 0.2v-3q0-3-5-29.5l-5-26.5-0.3-0.2q-0.2-0.3-2.2 0l-2 0.2 0.5-0.8q0.5-0.7 1.5-1.2zm5.5 133v10l-0.5 1.5-0.5 1.5-0.3 1-0.2 1-1-0.2-1-0.3-0.2-0.3-0.3-0.2-0.3-0.2-0.2-0.3-0.2-0.3-0.3-0.2-0.3-0.2-0.2-0.3-0.2-0.3q-0.3-0.2-4.6-3l-4.2-2.7-0.2-0.3-0.3-0.2-0.3-0.2-0.2-0.3-1-0.5-1-0.5-1-0.5-1-0.5h-2l-0.2 0.3-0.3 0.2v3l0.3 0.2 0.2 0.3 1 0.5 1 0.5 1 0.5 1 0.5 5.5 4q5.5 4 5.7 4.3l0.3 0.2 0.3 0.2 0.2 0.3 0.2 0.3 0.3 0.2v3l-0.5 1-0.5 1-0.3 0.2q-0.2 0.3-4.4 4.6-4.3 4.2-11 6.4-6.8 2.3-10.8 1.3t-9.2-5.3q-5.3-4.2-9.3-11.2t-4.5-17.5 0.5-14.5 5.3-11q4.2-7 8.7-9.8 4.5-2.7 11.5-3.2t10.5 1 8.3 6.2q4.7 4.8 7.7 11.8t3 17z" stroke="#057471" fill="#057471"/>
   <path id="path180" d="m398.86 606.83 4.5 0.5 4.5 0.3 4.5 0.2v0.2q0 0.3-2 0.8t-14.5 0.5h-12.5l-3-0.3-3-0.2v4l2.5 0.2 2.5 0.3 15.5 1.5q15.5 1.5 21 2l5.5 0.5-1.5 0.5q-1.5 0.5-3.5 0.8l-2 0.2-7-0.2q-7-0.3-20.5-1.6-13.5-1.2-14 5.8l-0.5 7 26 2.2q26 2.3 28.5 2.6l2.5 0.2v0.5l-1 0.5-1 0.5-1.5 0.5-1.5 0.5v0.5l-5-0.2q-5-0.3-26.5-2-21.5-1.8-25.3 15.7l-3.7 17.5-0.3 1-0.2 1 34 3.2q34 3.3 35.5 3.6l1.5 0.2v0.5l0.2 0.3 0.3 0.2 0.3 0.2 0.2 0.3-1.5 0.5-1.5 0.5 0.2 0.3 0.3 0.2 0.3 0.2 0.2 0.3 1.5 0.5 1.5 0.5-2 0.5-2 0.5v0.5h-6.5q-6.5 0-6.7 2-0.3 2-3.8 11t-7.8 14.2q-4.2 5.3-12.2 9.3t-18.5 4.5-18.5-2.5-13.2-8.3q-5.3-5.2-9.8-14.2t-8.8-10.8q-4.2-1.7-10.2-7.7t-44.5-7.3l-38.5-1.2-0.2 7.5q-0.3 7.5-0.8 10l-0.5 2.5-0.5 2-0.5 2-0.3 0.5-0.2 0.5h-0.5l-0.3 0.2-0.2 0.3h-5l-0.2-0.3-0.3-0.2h-0.5l0.2-0.5 0.3-0.5 0.5-2 0.5-2 0.5-1.5q0.5-1.5 1.2-11l0.8-9.5-5-0.2q-5-0.3-8.2 0-3.3 0.2-16.6-0.6l-13.2-0.7v-0.5h6v-2l3.5-0.2 3.5-0.3 1.5-0.3 1.5-0.2 56.5-0.2q56.5-0.3 60.7-6.6 4.3-6.2 6.3-13.2t2-11.5v-4.5l-0.3-0.2-0.2-0.3-6.5-0.5q-6.5-0.5-23-2l-16.5-1.5-3-0.3-3-0.2v-0.5l1.5-0.5 1.5-0.5 3-0.5 3-0.5v-0.5l13.5 0.8q13.5 0.7 15.3-0.6 1.7-1.2 2-1.4l0.2-0.3 0.2-0.3 0.3-0.2 0.3-0.2 0.2-0.3 0.2-0.3 0.3-0.2 0.3-0.2 0.2-0.3 0.2-0.3 0.3-0.2 0.3-0.2 0.2-0.3 0.2-0.3 0.3-0.2 0.5-1 0.5-1 0.3-0.2 0.2-0.3 0.2-0.3 0.3-0.2 0.5-1 0.5-1 0.3-0.2 0.2-0.3-2.5-0.5-2.5-0.5-5-0.5q-5-0.5-25.5-2.5l-20.5-2v-0.5l0.5-0.2 0.5-0.3 3-0.5 3-0.5-4.5-0.5-4.5-0.5h-7q-7 0-12 1.5t-10 5l-5 3.5-0.2 0.3-0.3 0.2-0.3 0.2-0.2 0.3-0.2 0.3-0.3 0.2-0.3 0.2-0.2 0.3-0.2 0.3-0.3 0.2-0.3 0.2-0.2 0.3h-2l-1.5-0.3-1.5-0.2 0.2-1.5 0.3-1.5 0.3-0.2 0.2-0.3 0.2-0.3 0.3-0.2 0.5-1 0.5-1 0.3-0.2 0.2-0.3 0.2-0.3 0.3-0.2 0.3-0.2 0.2-0.3 0.2-0.3 0.3-0.2 0.3-0.2 0.2-0.3-0.2-0.3-0.3-0.2-0.3-0.2-0.2-0.3 0.2-0.3 0.3-0.2v-2h-0.5l3.5-2.8q3.5-2.7 10-4.7t47 1 43-4.3q2.5-7.2 9.5-7 7 0.3 20.8 4 13.7 3.8 15 9.6 1.2 5.7 9.7 6.7t13 1.5zm-52 77.5h-6.5l-2.5-0.5-2.5-0.5-1-0.5-1-0.5 0.2-0.3 0.3-0.2 0.3-0.2 0.2-0.3 0.2-0.3 0.3-0.2 0.5-1 0.5-1 4-9q4-9 8-30.5t4.3-35q0.2-13.5 9.7-11.3 9.5 2.3 10.3 3 0.7 0.8-0.8 21.8t-5.5 37-8 22.5-4.3 6.7q-0.2 0.3-6.7 0.3zm-6.5 14.5-0.5-1-0.5-1-0.5-1-0.5-1-0.5-1-0.3-1.5-0.2-1.5 1.5 0.2 1.5 0.3 8-0.5q8-0.5 11.8-4.2 3.7-3.8 5-6 1.2-2.3 9.4-1.6 8.3 0.8 7.3 9.8t-5 15.5-8.7 9.7q-4.8 3.3-8.3 2.8t-8.7-4.8q-5.3-4.2-7.8-8.2t-3-5z" stroke="#10227e" fill="#10227e"/>
   <path id="path182" d="m327.36 511.83-1-0.5-1-0.5-1-0.5-0.2-0.3-0.3-0.2-0.3-0.2-0.2-0.3-1-0.5-1-0.5-0.2-0.3-0.3-0.2-0.3-0.2-0.2-0.3-0.2-0.3-0.3-0.2-0.3-0.2-0.2-0.3h5l9.5-0.5q9.5-0.5 17.7-4.2 8.3-3.8 11.6-5.8 3.2-2 3.7-3.2 0.5-1.3 1.5-1.6 1-0.2 6.8-10.7 5.7-10.5 7-20 1.2-9.5 6-7.5 4.7 2 3.7 15.5t-7.3 25.3q-6.2 11.7-11.7 15.7t-10 4.3q-4.5 0.2-4.5 1.2t-3.5 1.2q-3.5 0.3-10 0.3t-11.5-2-6-2.5z" stroke="#fdfdfd" fill="#fdfdfd"/>
   <path id="path184" d="m643.56 637.33 0.8-16.5 1 0.2q1 0.3 2 0.6l1 0.2-1.2 19.5q-1.3 19.5-5.8 36t-6.2 20.3q-1.8 3.7-2 4l-0.3 0.2-0.3 0.2-0.2 0.3-0.2 0.3-0.3 0.2-0.5 1-0.5 1-0.3 0.2-0.2 0.3 0.2 0.3 0.3 0.2 0.3 0.2 0.2 0.3 3.5 0.5 3.5 0.5h5q5 0 9.2-4.3 4.3-4.2 8.8-19.7t6.2-37l1.8-21.5 0.2-1 0.3-1 0.3-0.5 0.2-0.5h0.2q0.3 0 0.6 1l0.2 1 0.2 5 0.3 5 0.7 1.8q0.8 1.7 2.3 1.7t0.5 0.3q-1 0.2-1 1.2t4 1.2q4 0.3 11 0.8l7 0.5 0.2 0.3 0.3 0.2 0.3 0.2 0.2 0.3-3 0.5-3 0.5-1 0.5-1 0.5-0.2 0.3-0.3 0.2-0.3 0.2-0.2 0.3 2 0.5 2 0.5 4.2 1.3q4.3 1.2 4.6 1.4l0.2 0.3 0.2 0.3 0.3 0.2 0.3 0.2 0.2 0.3 0.2 0.3 0.3 0.2 0.3 0.2 0.2 0.3 0.2 0.3 0.3 0.2 0.5 1.5 0.5 1.5 0.3 1 0.2 1-6.5 0.2q-6.5 0.3-11.5 0.8l-5 0.5-1 0.5-1 0.5 0.2 0.3 0.3 0.2 0.3 0.5 0.2 0.5h-5.2q-5.3 0-8.8 15t-4 17l-0.5 2-0.5 1-0.5 1-0.3 0.2-0.2 0.3 36.2 2.7q36.3 2.8 38.8 0.8t3-3l0.5-1h0.5v0.5l1 0.3 1 0.2-0.2 1-0.3 1-0.3 0.2-0.2 0.3 2 0.3 2 0.2v2l-1 0.2-1 0.3-0.2 0.3-0.3 0.2-0.3 0.2-0.2 0.3-0.2 0.3-0.3 0.2-0.3 0.2-0.2 0.3-0.2 0.3-0.3 0.2-0.3 0.2-0.2 0.3-1 0.5q-1 0.5-2.5 1.5t-39-1-39.5 0-6 4.5-16 1.5-17.5-3-9.5 3-9 8.5-16 6.2l-11 2.8-4-0.2-4-0.3-3-0.5q-3-0.5-10-3.5t-12.5-8.5-10.5-15-49-14l-44-4.5-0.2-0.3-0.3-0.2h-0.5v-0.5l2-0.5 2-0.5-1.5-0.5-1.5-0.5-0.2-0.3-0.3-0.2-0.3-0.2-0.2-0.3 1.5-0.5 1.5-0.5-0.2-0.3-0.3-0.2-0.3-0.2-0.2-0.3v-0.5l88 8q88 8 92.8 0 4.7-8 6.2-13.5t1.8-10l0.2-4.5h0.5l0.5 2.5 0.5 2.5h0.5l-2.2 9.5q-2.3 9.5-6.3 15.5t-4 7.5v1.5l0.5 1 0.5 1 0.3 0.2 0.2 0.3 0.2 0.3 0.3 0.2 0.5 1 0.5 1 0.3 0.2 0.2 0.3 0.2 0.3 0.3 0.2 0.3 0.2 0.2 0.3 1 0.5 1 0.5h3l0.2-0.3 0.3-0.2 0.3-0.2 0.2-0.3 0.2-0.3 0.3-0.2 0.3-0.2 0.2-0.3 0.2-0.3 0.3-0.2 0.3-0.2 0.2-0.3 0.2-0.3 0.3-0.2 0.3-0.2q0.2-0.3 3.4-7.6 3.3-7.2 6.8-23.2t4.2-32.5zm-76.2 59.3 3 0.2-0.2 1.5q-0.3 1.5-3 6.3-2.8 4.7-7.8 8.2t-10 4-8-1.2q-3-1.8-5-5-2-3.3-5-10.6-3-7.2 15-5.4 18 1.7 21 2zm-5 29.7h-2l-1.5-0.5-1.5-0.5-1.5-0.5-1.5-0.5-0.2-0.3-0.3-0.2-0.3-0.2-0.2-0.3 1-0.5 1-0.5 1-0.5 1-0.5 1-0.5 1-0.5 5.2-4.3q5.3-4.2 8.6-11.2 3.2-7 8.7-6.5t4 6-0.7 6q0.7 0.5-2.6 5.3-3.2 4.7-5.7 6.7t-7.5 3-7 1z" stroke="#027763" fill="#027763"/>
   <path id="path186" d="m-91.843 640.63-0.8-4.3 2-0.5 2-0.5 2-0.5q2-0.5 11-1t10.2 1.2q1.3 1.8 1.8 7.3t-11.2 6.3q-11.8 0.7-14-1.6-2.3-2.2-3-6.4z" stroke="#fefdfd" fill="#fefdfd"/>
   <path id="path188" d="m375.16 567.83 0.2-2h2l0.2 1 0.3 1 0.5 2 0.5 2 1.7 2.2q1.8 2.3 26.3 6.3t98 11.5 82 8 10 0.5h1.5l0.2-0.3 0.3-0.2 0.5-2 0.5-2 0.5-2 0.5-2 0.3-2 0.2-2-2-0.2-2-0.3-2-0.5q-2-0.5-35-5.2l-33-4.8h5.2q0.3 0 0.6 0.5l0.2 0.5 34.5 3.8q34.5 3.7 35 3.4l0.5-0.2 0.2 1q0.3 1 1-0.2 0.8-1.3 0.6 1-0.3 2.2-0.8 3.7t-1 3l-0.5 1.5-0.3 3-0.2 3 2.5-0.2 2.5-0.3 0.2-0.3 0.3-0.2 0.3-0.2 0.2-0.3 1-0.5 1-0.5 0.2-0.3 0.3-0.2 0.3-0.2 0.2-0.3 0.2-0.3q0.3-0.2 0.8-0.7t7.8-10l7.2-9.5h1q1 0 1-1t1-1h1l-0.2 1q-0.3 1-6.3 10t-11.3 13.2q-5.2 4.3-16.7 4.6-11.5 0.2-12.7 4.7l-1.3 4.5-0.5 2-0.5 2-0.5 2-0.5 2-0.3 0.2-0.2 0.3 0.2 0.3 0.3 0.2 0.3 0.2 0.2 0.3 14.2 1.7q14.3 1.8 22 2.8 7.8 1 10.3-6t15-5.2q12.5 1.7 15 2.2t4 1l1.5 0.5 2 0.5 2 0.5 1.5 0.5 1.5 0.5v0.5l-0.2 0.5-0.3 0.5-0.3 1-0.2 1-0.5-0.2-0.5-0.3-1-0.5-1-0.5-1.5-0.5-1.5-0.5-2-0.5q-2-0.5-7.5-1.2-5.5-0.8-5.5 0.2v1l-1-0.2q-1-0.3-2-0.6l-1-0.2-0.2-0.5q-0.3-0.5-5.6-1.3l-5.2-0.7-0.2 0.3-0.3 0.2-0.5 1-0.5 1-0.5 1.5-0.5 1.5-0.5 1.5-0.5 1.5-0.3 1-0.2 1 4 0.8q4 0.7 4.2 1l0.3 0.2v6l-0.5 1-0.5 1-0.3 0.2-0.2 0.3h-3q-3 0-6 0t-4 1.5l-1 1.5-0.2 0.3-0.3 0.2-0.3 0.2-0.2 0.3-0.2 0.3-0.3 0.2-0.5 1-0.5 1-0.3 0.2-0.2 0.3-0.2 0.3-0.3 0.2-0.5 1-0.5 1-0.3 0.2-0.2 0.3-0.2 0.3-0.3 0.2-0.3 0.2-0.2 0.3 6 0.7q6 0.8 6.2 1.8l0.3 1v9h-1l-0.5-2.5-0.5-2.5h-0.5v-2l-3-0.2q-3-0.3-13.5-0.8t-16.5 13.2q-6 13.8-64.5 9l-58.5-4.7-0.2-0.3-0.3-0.2v-1.5q0-1.5 3-13.5l3-12 0.3-1 0.2-1-2-0.2q-2-0.3-23.5-2.3l-21.5-2-1-0.3-1-0.2v-0.5l1.5-0.5 1.5-0.5 1-0.5 1-0.5v-0.5l16.5 1.2q16.5 1.3 22.5 1.3h6l0.2-0.3 0.3-0.2 0.5-2 0.5-2 0.5-2 0.5-2 0.3-1.5 0.2-1.5-1-0.2-1-0.3-5-0.5q-5-0.5-30.5-3l-25.5-2.5v-0.5l2-0.2q2-0.3 3.5-0.8l1.5-0.5-5.5-0.5q-5.5-0.5-21-2l-15.5-1.5-2.5-0.3-2.5-0.2v-4l3 0.2 3 0.3h12.5q12.5 0 14.5-0.5t2-0.8v-0.2l52 4.8q52 4.7 59.5 5.2l7.5 0.5 1 0.3 1 0.2-0.2-2-0.3-2-0.5-3-0.5-3-0.5-3q-0.5-3-1-4.5t-32.2-5.3q-31.8-3.7-73.8-9.7t-44.8-8.7l-2.7-2.8-0.5-1q-0.5-1-1.2-2.5l-0.8-1.5h0.5l0.3-2zm169.7 42.5-1.5-9.5 11.5 0.8q11.5 0.7 15.5 1l4 0.2-0.8 3.5q-0.7 3.5-1.2 5.5l-0.5 2-0.5 2q-0.5 2-0.8 3.5-0.2 1.5-12.2 1t-13.5-10zm56.5 18.3 3 0.2-0.2 1-0.3 1-0.5 1.5-0.5 1.5-0.5 1q-0.5 1-9.2 22-8.8 21-57.6 16.5-48.7-4.5-55-4.5h-6.2l0.2-1 0.3-1 5.7-23.5q5.8-23.5 61.8-19.3 56 4.3 59 4.6z" stroke="#06777a" fill="#06777a"/>
   <path id="path190" d="m624.86 568.83 2.5-0.5 1.5-0.3 1.5-0.2-0.8 2.5q-0.7 2.5-1.2 3.5l-0.5 1-0.3 1-0.2 1-7.2 9.5q-7.3 9.5-7.8 10t-0.8 0.7l-0.2 0.3-0.2 0.3-0.3 0.2-0.3 0.2-0.2 0.3-1 0.5-1 0.5-0.2 0.3-0.3 0.2-0.3 0.2-0.2 0.3-2.5 0.3-2.5 0.2 0.2-3 0.3-3 0.5-1.5q0.5-1.5 1-3t-0.2-3.5l-0.8-2 0.2-1q0.3-1 2-4l1.8-3h0.5l0.3 1 0.2 1 1-0.2 1-0.3 0.2-0.3 0.3-0.2 0.3-0.2 0.2-0.3 0.2-0.3 0.3-0.2 0.3-0.2 0.2-0.3 0.2-0.3 0.3-0.2 0.3-0.2 0.2-0.3 0.2-0.3 0.3-0.2 0.3-1q0.2-1 4.2-2.8 4-1.7 6.5-2.2zm-20.3 16q0.3-1 1-0.2 0.8 0.7-0.2 1-1 0.2-0.8-0.8z" stroke="#132b3d" fill="#132b3d"/>
   <path id="path192" d="m576.36 140.03-17 1.8 0.2-1 0.3-1 0.3-0.2 0.2-0.3 0.2-0.3 0.3-0.2 0.3-0.2 0.2-0.3 0.2-0.3 0.3-0.2 0.3-0.2 0.2-0.3 1-0.5 1-0.5 0.2-0.3 0.3-0.2 0.3-0.2 0.2-0.3 1-0.5q1-0.5 8.5-6.5t15-2 10 6.7q2.5 2.8-2 4-4.5 1.3-21.5 3z" stroke="#fdfdfc" fill="#fdfdfc"/>
   <path id="path194" d="m157.86 236.83 1.5-0.5 1-0.3 1-0.2 2 0.8q2 0.7 2 1v0.2l-0.5 0.2q-0.5 0.3-0.5 0.6v0.2l-1 0.2q-1 0.3-11 3.8t-47.5 18.5-38.3 17.7q-0.7 2.8-1.2 12.3l-0.5 9.5 0.3 0.2 0.2 0.3h3l25-6.5q25-6.5 27.5-6.8l2.5-0.2h2q2 0 2.2 1 0.3 1 0.6 2l0.2 1-1 0.2-1 0.3-2 0.5q-2 0.5-25 6.5l-23 6-1.5 0.5-1.5 0.5-1 0.5-1 0.5-0.2 0.3-0.3 0.2-0.3 1-0.2 1 2-0.2 2-0.3 1.5-0.5 1.5-0.5 25-6q25-6 27.5-6.5l2.5-0.5h8l0.2 0.3 0.3 0.2 0.3 0.2 0.2 0.3-0.2 0.3-0.3 0.2-0.3 0.5-0.2 0.5-1 0.2-1 0.3-3.5 0.5q-3.5 0.5-35 8.8-31.5 8.2-32.3 15.7l-0.7 7.5h-0.5v-13l-1 0.2-1 0.3-0.2 0.3-0.3 0.2-0.5 2-0.5 2v39.5q0 39.5 1.5 55.5t1.5 22v6h-1l-0.5-4-0.5-4-0.5-3.5q-0.5-3.5-2-17.5t-2-56l-0.5-42-0.3 0.2-0.2 0.3-1.5 0.5-1.5 0.5-34 13q-34 13-54.8 22.7-20.7 9.8-21.7 32.8t1 54.5 6 57.5 4.5 28.5l0.5 2.5 0.5 3 0.5 3v2h-1l-0.5-2.5-0.5-2.5-0.5-2.5q-0.5-2.5-1.5-8t-5.5-39-5-76l-0.5-42.5-0.3 0.2-0.2 0.3-1.5 0.5-1.5 0.5-7.5 4q-7.5 4-8.5 4.3l-1 0.2v-3l-2 0.2-2 0.3-1 0.5-1 0.5-1 0.5-1 0.5-9.5 5q-9.5 5-10.5 5.5l-1 0.5-1 0.5-1 0.5-1 0.5-1 0.5-0.2 0.3-0.3 0.2-0.3 0.2-0.2 0.3h-1l-0.2-0.3-0.3-0.2-0.3-1-0.2-1 1-0.2 1-0.3 0.2-0.3 0.3-0.2 0.3-0.2 0.2-0.3 1-0.5 1-0.5 0.2-0.3 0.3-0.2 0.3-0.2 0.2-0.3 1-0.5q1-0.5 8.2-4.8 7.3-4.2 8.8-7.2t3.8-5.2q2.2-2.3 13.7-8 11.5-5.8 11.3-11.3l-0.3-5.5 0.3-0.2 0.2-0.3-0.2-0.3-0.3-0.2-0.3-0.2-0.2-0.3h-2l-0.2 0.3-0.3 0.2v-2l0.3-0.2 0.2-0.3-0.2-0.3-0.3-0.2-0.3-0.2-0.2-0.3-0.2-0.3-0.3-0.2h-0.5v-0.5l49.5-24.5q49.5-24.5 93-43t61.5-25 19.5-7zm-209.5 112-1 0.5-1 0.5-1 0.5-1.5 0.3-1.5 0.2-0.2-1-0.3-1v-9l0.3-2q0.2-2 56.4-29 56.3-27 56.6-15 0.2 12-31.3 23.8-31.5 11.7-53 21.2t-22.5 10z" stroke="#2e1b7f" fill="#2e1b7f"/>
   <path id="path196" d="m49.557 175.03-5.2-1.7 1-0.5 1-0.5 0.2-0.3 0.3-0.2 0.3-0.2 0.2-0.3 0.2-0.3 0.3-0.2 0.3-0.2 0.2-0.3 1-0.5 1-0.5 0.2-0.3q0.3-0.2 2-1.4 1.8-1.3 10.3-5.6 8.5-4.2 5.3 17.3-3.3 21.5-5.3 14t-5-12-8.3-6.3z" stroke="#fbfcfc" fill="#fbfcfc"/>
   <path id="path198" d="m748.36 415.63 2 5.2v6l-0.2 1.5-0.3 1.5-0.5 1.5-0.5 1.5-0.5 1q-0.5 1-3.2 3.8-2.8 2.7-8.8 3.2t-8-0.5-4.8-4.7q-2.7-3.8-3.2-10.8t0.5-9.5 4-5.5 8.3-3.8q5.2-0.7 9.2 1.8t6 7.8z" stroke="#d94f16" fill="#d94f16"/>
  </g>
  <path id="path156-7" d="m704.81 471.36q8.2888 0 15.496 3.2682 7.2076 3.2682 12.83 8.7425 5.5499 5.556 9.5141 14.544 3.9642 8.9876 4.685 18.384 0.72076 9.3961-1.0812 17.975-1.8019 8.5791-5.9103 15.933-4.1804 7.3535-8.6492 11.03-4.5408 3.6767-10.811 6.7816-6.3427 3.0231-14.632 3.4316-8.2888 0.40853-14.776-2.0426-6.4869-2.4512-12.109-7.1084-5.5499-4.7389-9.1537-10.458-3.6038-5.7194-5.7661-12.256-2.1623-6.5364-2.5227-15.524-0.36038-8.9876 1.8019-17.567 2.1623-8.5791 5.4057-13.89 3.2434-5.3108 8.505-10.377 5.1895-5.1474 12.037-8.0071 6.8473-2.8597 15.136-2.8597zm-16.938 89.631 4.3246 3.5133 0.72077 0.40853 0.72076 0.40852 0.72077 0.40854 0.72077 0.40852 0.72076 0.24512 0.72076 0.16341v1.6341l-0.72076-0.16341-0.72076-0.24512-1.4415-0.40853-1.4415-0.40853-0.72076-0.40852-0.72077-0.40853-1.0811-0.40852q-1.0812-0.40854-3.9642-2.0426-2.8831-1.6341-8.6492-8.1705t-8.7933-14.135q-3.0993-7.5169-3.0993-19.773t3.2434-20.426q3.2434-8.1705 7.0635-12.419 3.748-4.3304 8.7933-8.0071 5.0454-3.6767 9.0096-4.4938 3.9642-0.81706 0 1.6341t-8.8654 7.9254q-4.8291 5.556-8.0726 13.727-3.2434 8.1705-3.9642 17.158-0.72077 8.9876 0.72077 16.341 1.4415 7.3535 5.9824 15.933 4.4688 8.5791 8.7933 12.011zm55.499-52.863 0.36039 1.2256 0.36038 1.6341 0.36038 1.6341v0.81706l-0.21623 0.1634-0.14415 0.24513-0.14415 0.24511-0.21623 0.16341-0.21624-0.16341-0.14415-0.24511-0.72077-0.40853-0.72076-0.40853-1.0812-0.40853-1.0812-0.40852-1.0811-0.40853q-1.0812-0.40852-25.587-10.622l-24.506-10.213-0.72077-0.40853-0.72075-0.40852-0.72077-0.40853-0.72077-0.40852-0.14415-0.24512-0.21623-0.16342v-1.6341l0.21623-0.16341 0.14415-0.24512 0.14415-0.24511 0.21623-0.16342 0.21623-0.16341 0.14416-0.24511 0.14415-0.24512 0.21623-0.16341 0.21623-0.16341 0.14416-0.24511 0.72075-0.40854 0.72077-0.40852 0.14416-0.24512 0.21623-0.16341 4.5408-3.1048q4.4688-3.0231 8.7933-4.2487 4.3246-1.2256 9.7303-0.81706 5.4057 0.40853 11.028 3.9219 5.5499 3.4316 9.8745 8.334 4.3246 4.9023 7.2077 11.847 2.8831 6.945 3.2434 8.1706zm-59.463 13.073h-3.2434l-0.14415-0.24511-0.21623-0.16342-0.21623-0.16341-0.14415-0.24511-0.14416-0.24512-0.21623-0.16341-0.36038-0.81706-0.36038-0.81705 0.36038-5.7194q0.36038-5.7194 2.7389-10.458 2.3064-4.6572 15.136 0 12.758 4.7389 1.4415 11.929-11.388 7.1084-14.632 7.1084zm9.7303 41.261-0.72076-0.40853-0.72077-0.40852-0.72076-0.40853-0.14416-0.24512-0.21623-0.16341-0.21623-0.16341-0.14415-0.24512-0.72076-0.40852-0.72077-0.40853-0.14415-0.24511-0.21623-0.16341-0.21623-0.16342-0.14416-0.24512-0.14415-0.24511-0.21623-0.16341-0.21623-0.16342-0.14416-0.24511h3.6038l6.8473-0.40852q6.8473-0.40853 12.758-3.4316 5.9824-3.1048 8.3609-4.7389 2.3064-1.6341 2.6668-2.6146 0.36039-1.0622 1.0812-1.3073 0.72075-0.16341 4.9012-8.7425 4.1084-8.5791 5.0454-16.341 0.86492-7.762 4.3246-6.1279 3.3876 1.6341 2.6668 12.664-0.72075 11.03-5.2616 20.671-4.4687 9.5595-8.433 12.828-3.9642 3.2682-7.2077 3.5133-3.2434 0.16341-3.2434 0.98046 0 0.81706-2.5227 0.98047-2.5227 0.24511-7.2076 0.24511-4.685 0-8.2888-1.6341t-4.3246-2.0426z" stroke="#01747e" stroke-width=".38370" fill="#01747e"/>
 </g>
</svg>
